<svg xmlns="http://www.w3.org/2000/svg" viewBox="0 0 558.36 192.73">
  <path
    d="M104,178.1a9.15,9.15,0,0,1-.53,3c-.36,1-1.29,1.52-2.79,1.52l-.26-.13c-.09,0-.29-.15-.6-.46s-.62-.64-.93-1-.62-.68-.93-1l-.59-.6a3,3,0,0,1-.73-.26,2.84,2.84,0,0,1-.73-.4v-.66l.79-.8a3.59,3.59,0,0,1-1.59-1.46q-.52-.93-1-1.92A18,18,0,0,0,93,172a4.07,4.07,0,0,0-1.66-1.46,1.53,1.53,0,0,1-.4-.27.7.7,0,0,1-.26-.39c1-.27,1.48-.8,1.52-1.6s.07-1.54.07-2.25c0-.35,0-.82-.07-1.39A9.75,9.75,0,0,0,92,163a3.82,3.82,0,0,0-.67-1.39A1.51,1.51,0,0,0,90,161H89.1a4.08,4.08,0,0,1,.2-.93c.14-.44.38-.66.73-.66a1.84,1.84,0,0,1,1,.46c.4.31.79.65,1.19,1a10.44,10.44,0,0,1,1,1c.26.31.44.51.53.6V161c-.09-.18-.25-.46-.47-.86a2.6,2.6,0,0,1-.33-.73,4.24,4.24,0,0,1,.27-1.06,2.75,2.75,0,0,1,.53-1.06,1.52,1.52,0,0,1-.4-.07,2,2,0,0,0-.4-.06.58.58,0,0,0-.26.06.54.54,0,0,1-.27.07h-.27a2.31,2.31,0,0,0-.72.4,2.54,2.54,0,0,1-.73.39c-.18,0-.4-.33-.67-1a18.87,18.87,0,0,1-.73-2.32c-.22-.88-.42-1.77-.59-2.65a11.08,11.08,0,0,1-.27-2c-.18-.62-.31-1.13-.4-1.53s-.15-.77-.19-1.12a6.34,6.34,0,0,1-.07-.67,7.92,7.92,0,0,1,.13-.86c.09-.48.18-1,.27-1.52s.15-1.06.2-1.59.06-.89.06-1.07h.27a8.53,8.53,0,0,1,2.91.53c1,.36,1.9.71,2.79,1.07h.79c.18-.27.45-.69.8-1.26s.57-.95.66-1.13c-.53.09-1.15.18-1.85.26a6,6,0,0,1-2-.06,3.31,3.31,0,0,1-1.53-.73,2,2,0,0,1-.59-1.59,6.82,6.82,0,0,1,.39-2.46,6.48,6.48,0,0,0,.4-2.45,2.22,2.22,0,0,0-.59-1.72,4,4,0,0,0-1.66-.8,9.69,9.69,0,0,0,.86-1.13,2.92,2.92,0,0,0,.6-1.12v-.4a2.29,2.29,0,0,0-.4-1.26,2.41,2.41,0,0,1-.4-1.39,7.8,7.8,0,0,1,.6-2.85c.4-1,.84-2,1.32-3s.93-2,1.33-3a8.08,8.08,0,0,0,.6-3c0-.44-.09-.73-.27-.86l-.53-.4a5.59,5.59,0,0,1-.53-.47,1.5,1.5,0,0,1-.27-1.06,7.45,7.45,0,0,1,.4-2.45,2.21,2.21,0,0,1,1.86-1.39,12,12,0,0,1,.2-4.25c.31-1.23.66-2.43,1.06-3.58s.77-2.29,1.13-3.44a13.7,13.7,0,0,0,.53-4v-.27a1.82,1.82,0,0,0-.34-.79,2,2,0,0,1-.33-.67,3.29,3.29,0,0,1,.93-1.92c.62-.75,1.15-1.12,1.59-1.12a1.85,1.85,0,0,1,1.66,1,3.55,3.55,0,0,1,.6,1.79,2.61,2.61,0,0,0-2.59,1.79,8.89,8.89,0,0,0-.73,3.38,4.23,4.23,0,0,0,.2,1.19c.13.45.6.58,1.39.4a1.57,1.57,0,0,0,1.06-.79,7.23,7.23,0,0,0,.67-1.46,7.5,7.5,0,0,0,.33-1.59q.06-.8.06-1.2a6.86,6.86,0,0,1,2.39,2.92,21.65,21.65,0,0,1,1.66,4.58c.4,1.63.7,3.24.93,4.83a30.15,30.15,0,0,1,.33,4c0,.36,0,1.09-.07,2.19s-.06,1.84-.06,2.19a2.1,2.1,0,0,0-.8.26,1.46,1.46,0,0,0-.66.53v.14A6.15,6.15,0,0,0,106,116a9.94,9.94,0,0,0,1,2v9.68c0,.71,0,1.7.06,3s.11,2.57.2,3.85.22,2.47.4,3.58a3.45,3.45,0,0,0,.93,2.19l1.46,13.26h.66a20.55,20.55,0,0,1,1.39-3l1.46-2.52a24.67,24.67,0,0,0,1.26-2.52,19.2,19.2,0,0,0,.93-3h3v-5.17a8.51,8.51,0,0,0,2.58-4.64c.49-2,.91-4.27,1.26-6.7s.75-4.9,1.2-7.42a18.38,18.38,0,0,1,2.38-6.57,5.23,5.23,0,0,0,.8-2c.08-.61.7-.92,1.85-.92h.4a5.65,5.65,0,0,0,.73,1.79,6.28,6.28,0,0,0,1.39,1.92c-.17.53-.37.79-.59.79h-.73a1.71,1.71,0,0,0-1,.53,7.59,7.59,0,0,0-1.39,2.39l.13.4a.45.45,0,0,1,.4.2c.09.13.18.2.27.2a1.86,1.86,0,0,0,.39-.87c.09-.39.22-.64.4-.72l.27-.14.26.14h.13l1.46,3a1.59,1.59,0,0,0,1.06-1,6.17,6.17,0,0,0,.34-1.66c0-.61.11-1.21.19-1.79a3.13,3.13,0,0,1,.67-1.52l1.39.93c.66.44,1.35.9,2,1.39s1.37.93,2,1.32a8.6,8.6,0,0,1,1.2.87c.17.09.33.55.46,1.39a7,7,0,0,0,.33,1.52,4.2,4.2,0,0,0,.6,1c.4.57.68,1,.86,1.26a25.05,25.05,0,0,1,1.59,3.25c.71,1.63,1.39,3.42,2.06,5.37s1.23,3.78,1.72,5.5a15.63,15.63,0,0,1,.73,3.65,3,3,0,0,1-.86,2.18,2.8,2.8,0,0,0-.86,2.06q0,1.32.66,1.59a4.63,4.63,0,0,0,1.72.27v.39a3.9,3.9,0,0,1-.79.87,3.59,3.59,0,0,0-.8.86v.53c.18.44.44.66.8.66A16.88,16.88,0,0,0,150.7,151a18.65,18.65,0,0,1,2.18,1.26,13.44,13.44,0,0,0,.6,2.78c.4,1.42.88,2.92,1.46,4.51s1.15,3.05,1.72,4.38,1.08,2.08,1.53,2.25a3.05,3.05,0,0,0,1.52-.26,6.85,6.85,0,0,1,1.79-.4,26.43,26.43,0,0,1,1.46-8.88,62.5,62.5,0,0,0,2.39-8.89,9.73,9.73,0,0,1,1.26-2.25,5.26,5.26,0,0,0,1-1.86v-.26a6.34,6.34,0,0,0-.26-1.2,5.84,5.84,0,0,1-.27-1.19.3.3,0,0,0-.06-.2.24.24,0,0,1-.07-.2.36.36,0,0,1-.13-.26h1.46a3.65,3.65,0,0,0-.73-2.19,3.8,3.8,0,0,1-.73-2.32c0-1,.39-1.46,1.19-1.46h.53c.09.09.33.31.73.66s.6.62.6.8-.09.22-.27.4a.7.7,0,0,0-.26.39v.27a7.54,7.54,0,0,0,.19,1.46c.14.62.27,1.24.4,1.85s.27,1.22.4,1.79a6.74,6.74,0,0,1,.2,1.4,7.28,7.28,0,0,0,2.65-1.33,2.91,2.91,0,0,0,.66-2.12,6.25,6.25,0,0,0-1.32-3.78,6.58,6.58,0,0,1-1.33-4h1.59a3.88,3.88,0,0,0-.66-2.58,4,4,0,0,0-1.46-1.06,11.69,11.69,0,0,1-1.46-.73,1.72,1.72,0,0,1-.66-1.59h1.33c.17.09.44.24.79.46a2.12,2.12,0,0,0,.66.33q.13,0,.6-.66c.31-.44.64-.93,1-1.46s.84-1.28,1.45-2.25a4.11,4.11,0,0,0-.26-1.2,2.91,2.91,0,0,0-.53-1.06,3.72,3.72,0,0,1-.66.8,3.65,3.65,0,0,1-.8.66h-.8c-.17-.08-.53-.22-1.06-.4a2.92,2.92,0,0,1-.92-.39q1.46-1.33,2.58-2.52A4.86,4.86,0,0,0,173,115a1.93,1.93,0,0,0-.53-1.52,12.1,12.1,0,0,0-1.13-.87c-.4-.26-.82-.53-1.26-.79a1.63,1.63,0,0,1-.79-1.2c-.09,0-.14-.35-.14-1.06a4.35,4.35,0,0,1,.14-1.06,1.86,1.86,0,0,0-.87-.4,1.68,1.68,0,0,1-.86-.39v-.8a1.79,1.79,0,0,0,.6-.66,1.75,1.75,0,0,0,.33-.8v-.13c0-.09,0-.13.07-.13s.06,0,.06-.13a1,1,0,0,0-.39-.73,9.36,9.36,0,0,0-.93-.67,3.17,3.17,0,0,1-.93-.86,2.09,2.09,0,0,1-.4-1.32,5.64,5.64,0,0,1,.13-1.07,5.67,5.67,0,0,0,.14-.92,14.2,14.2,0,0,0,.46-1.79,12.9,12.9,0,0,0,.33-1.93,7,7,0,0,1-.86-1.79,7.79,7.79,0,0,0-.86-1.79V90.71a7.35,7.35,0,0,0,.46-2,3.79,3.79,0,0,1,.47-1.73.22.22,0,0,0,.2-.13.19.19,0,0,1,.19-.13,1.25,1.25,0,0,1,1.26.93,1.18,1.18,0,0,0,1.13.92,3,3,0,0,0,1.66-.39,2.19,2.19,0,0,1,1.26-.4,10.78,10.78,0,0,1,2.72.33,10.14,10.14,0,0,0,2.58.33V87.8a5,5,0,0,0-.26-1.26,5.3,5.3,0,0,0-.53-1.26h1.19a5.58,5.58,0,0,1,1.33.13,2.84,2.84,0,0,1,1.19.8q1.06,2.12,2.25,4.77t2.19,5.44c.66,1.85,1.21,3.69,1.66,5.5a21.2,21.2,0,0,1,.66,5v.8l-3.71-.8a1.56,1.56,0,0,0-.07-1.59,1.58,1.58,0,0,0-1.39-.66,3.85,3.85,0,0,0-2.25.73,4,4,0,0,1-2.26.73c-.62,0-1.17-.6-1.66-1.79a14.53,14.53,0,0,0-1.26-2.59l-.53-.53c-.26-.27-.57-.55-.92-.86l-1-.86-.6-.53h-.26l-.13.13a3.23,3.23,0,0,0,.33,1.46,3.52,3.52,0,0,1,.33,1.59.48.48,0,0,1-.07.26,1,1,0,0,0-.06.4,1.05,1.05,0,0,0-.14.4c0,.18-.13.33-.39.46s-.4.25-.4.33a20,20,0,0,0,.13,2.06,11.88,11.88,0,0,0,.53,2.45,5.71,5.71,0,0,0,1.2,2.06,2.6,2.6,0,0,0,2,.86c.45,0,.67-.27.67-.8a3.34,3.34,0,0,0-.2-.86c-.13-.4-.29-.59-.47-.59a7.73,7.73,0,0,0,2.13.33,1.47,1.47,0,0,0,.86-.4c.22-.22.48-.46.79-.73a4.74,4.74,0,0,1,2.06-.66,2.29,2.29,0,0,1,1.86.46,3.17,3.17,0,0,1,.92,1.46,7.77,7.77,0,0,1,.33,1.86c.05.66.07,1.17.07,1.52a3.5,3.5,0,0,1,1.79.27c.22.17.33.75.33,1.72a2.13,2.13,0,0,1-.46,1.46,4,4,0,0,1-1.06.86,6,6,0,0,0-1.06.73,1.47,1.47,0,0,0-.47,1.19,1.85,1.85,0,0,0,.73,1.59,10.08,10.08,0,0,0,1.53.93c.53.27,1,.56,1.52.86A1.56,1.56,0,0,1,187,124c0,.09-.09.22-.26.39a.78.78,0,0,1-.53.27,2.48,2.48,0,0,1-.73-.33,2.73,2.73,0,0,0-.73-.33h-.8a3.43,3.43,0,0,1-.13,1.06c-.09.26-.4.4-.93.4a1.87,1.87,0,0,1-1.06-.6,14.21,14.21,0,0,1-1.39-1.46,11.42,11.42,0,0,1-1.2-1.66,2.74,2.74,0,0,1-.46-1.19l.13-.27c.09,0,.14,0,.14-.13a.36.36,0,0,1,.13-.26l.4-.4v-.27c0-.53-.16-.86-.47-1a2.89,2.89,0,0,0-1.13-.2,1.14,1.14,0,0,0-1.12.73,3.65,3.65,0,0,0-.33,1.52,5,5,0,0,0,.39,1.26l.87,2.13a23.06,23.06,0,0,0,1,2.12,2.91,2.91,0,0,0,.8,1.12,7.47,7.47,0,0,0,1.52.34c.84.13,1.3.28,1.39.46a2.29,2.29,0,0,1,.4,1.19A14.48,14.48,0,0,1,183,131v3.38H184l1.33-.66a.84.84,0,0,1,.53.2.56.56,0,0,1,.27.46,2.5,2.5,0,0,1-.34,1.33,5.63,5.63,0,0,1-.79,1,5.69,5.69,0,0,0-.8,1,2.5,2.5,0,0,0-.33,1.33,9.19,9.19,0,0,0,.4,2.92,8.47,8.47,0,0,1,.4,2.65,14,14,0,0,1-.67,4.51,17.21,17.21,0,0,0-.79,4.51l-1.46.66v-.66a5,5,0,0,1,.27-1.13,8.13,8.13,0,0,1,.39-1.13c-1.06.36-1.68.31-1.85-.13a4.44,4.44,0,0,1-.27-1.66,6.46,6.46,0,0,0-.26-1.85q-.27-.87-1.59-.87h-.4a4.9,4.9,0,0,1-.8.93v5.84a5.41,5.41,0,0,0,.13.86c.09.4.18.86.27,1.39s.18,1,.26,1.46a7.33,7.33,0,0,1,.14.79,3,3,0,0,1-.93,2.32,3.23,3.23,0,0,1-2.79.6v.66a2.77,2.77,0,0,0,.34,1.4,6.5,6.5,0,0,0,.79,1.12,8.93,8.93,0,0,1,.8,1.06,2.5,2.5,0,0,1,.33,1.33q0,2.66-3.05,1.86a6.83,6.83,0,0,0-3,4,18.12,18.12,0,0,0-.73,5q-.13,0,.06-.06c.14-.05.11-.07-.06-.07a9.9,9.9,0,0,0-1.13-.6,2.79,2.79,0,0,1-1.13-.86,11.07,11.07,0,0,1-.46,3.85,2.61,2.61,0,0,1-2.72,2.12,14.74,14.74,0,0,1-3.91-.8,18.25,18.25,0,0,1-3.91-1.59c-.09,0-.29-.13-.6-.4a8.92,8.92,0,0,1-.93-.92l-.86-1c-.27-.31-.44-.51-.53-.6a1.84,1.84,0,0,0-1.33-.26,6,6,0,0,1-1.19.13,1.17,1.17,0,0,1-.86-.33,2.33,2.33,0,0,1-.33-1.52c0-.27.08-.42.26-.47a2.29,2.29,0,0,0,.53-.2l.53-.26c.18-.09.27-.31.27-.67a1.81,1.81,0,0,0-.6-1.52,6.2,6.2,0,0,0-1.66-.86,5.46,5.46,0,0,0-.26-1.13c-.18-.57-.36-1.17-.53-1.79s-.33-1.21-.47-1.79-.24-1-.33-1.26a14.45,14.45,0,0,0-.73-1.32,9,9,0,0,1-.53-1,2.27,2.27,0,0,1-.2-.6c0-.08.22-.33.67-.73s.7-.64.79-.72l.14-.27c0-.26-.25-.48-.73-.66s-1.06-.35-1.73-.53a17.91,17.91,0,0,1-2-.67,11.68,11.68,0,0,1-1.65-.79l-.27-.13-.4.13a.61.61,0,0,0-.33.13,4.68,4.68,0,0,1-.46.27,6.08,6.08,0,0,1-.67.39.7.7,0,0,1-.39-.26,2.05,2.05,0,0,1-.4-.53,42.94,42.94,0,0,1-2.06-4.11,17.9,17.9,0,0,1-.86-2.65,9.84,9.84,0,0,1-.2-2.59c0-.93.07-2.32.07-4.18a5.09,5.09,0,0,1-2.65-.46,2.28,2.28,0,0,1-.86-.93,3.27,3.27,0,0,1-.27-.93c-.05-.31-.33-.46-.86-.46h-.53a17.8,17.8,0,0,0-.67,3.58c-.08,1.15-.13,2.34-.13,3.58-.35,0-.53.13-.53.4a14.4,14.4,0,0,1-3.78,2.72,35,35,0,0,1-4.57,1.52.55.55,0,0,1-.33.46c-.22.14-.33.25-.33.34a4.61,4.61,0,0,0,.19,1c.14.49.31,1,.53,1.66s.4,1.19.53,1.72a5.05,5.05,0,0,1,.2,1.19,2.41,2.41,0,0,1-.46,1.26c-.31.49-.66,1-1.06,1.6s-.82,1.15-1.26,1.72a6,6,0,0,0-.93,1.66c-.09.53-.24,1.24-.46,2.12s-.47,1.79-.73,2.72a20.51,20.51,0,0,1-1,2.71,9,9,0,0,1-1.26,2.13.73.73,0,0,1-.66.2,4.25,4.25,0,0,0-.8-.07,1.88,1.88,0,0,0-.72.13c-.23.09-.34.36-.34.8s.16.84.47.93a4.79,4.79,0,0,1,1.06.46,3.82,3.82,0,0,1,1.19,1.19,8.53,8.53,0,0,1,1,3.12v.13a3.78,3.78,0,0,1-1.13,2.65,3.45,3.45,0,0,1-2.59,1.2v-3.32h-.92v3.85h-.4c-.36,0-.58,0-.66-.14a3.37,3.37,0,0,1-2-1.26,9.86,9.86,0,0,1-1.33-2.18,12.85,12.85,0,0,1-.8-2.46,11.29,11.29,0,0,1-.26-2.18Zm-12.6-23.87a5.21,5.21,0,0,0,2,1.79,5,5,0,0,0,2.38.73,6.26,6.26,0,0,1,.47-2.52,6.27,6.27,0,0,0,.46-2.52c-.71-.18-1.26-.33-1.65-.46s-.78-.25-1.13-.34-.53-.17-.53-.26a3,3,0,0,1,.4-1.19,10.21,10.21,0,0,1,.86-1.46c.31-.44.73-1,1.26-1.73H95.2v1.2a2.37,2.37,0,0,1-2.12-1c-.44-.66-1-1.48-1.72-2.45H90.7v1.59a18.35,18.35,0,0,0,.13,2.19c.09.75.15,1.46.2,2.12a2.92,2.92,0,0,0,.33,1.39c.09.18.35.33.79.47s.71.28.8.46v.26a.38.38,0,0,0,.13.27C93.08,153.74,92.51,154.23,91.36,154.23ZM93,125.46q-.66,0-.66.72c0,.49.22.73.66.73s.66-.24.66-.73S93.39,125.46,93,125.46Zm0-14.06.8-.8H93Zm1.46,8.88c-.36,0-.53.25-.53.73s.17.73.53.73.66-.24.66-.73S94.85,120.28,94.41,120.28Zm0,14.06c-.36,0-.53.24-.53.73s.17.73.53.73.66-.24.66-.73S94.85,134.34,94.41,134.34ZM101,144.55V144h-.66Zm1.59,12.73c-.27-.09-.4,0-.4.33s.13.46.4.46a.74.74,0,0,0,.27-.53A.24.24,0,0,0,102.63,157.28Zm2.25-19.89h.67v-.8h-.67ZM107,158.74c-.45,0-.67.24-.67.73s.22.73.67.73.66-.25.66-.73S107.45,158.74,107,158.74Zm13.26-16.05a1.31,1.31,0,0,0,1.45-.93h-1.45Zm2.25-3.18h3.71a.78.78,0,0,0-.93-.73c-.53.05-1,.07-1.32.07h-1.46ZM124,135l.79.86c.36.4.58.65.67.73a5.72,5.72,0,0,0,1.59-1.85,4.53,4.53,0,0,0,.79-2,9.85,9.85,0,0,0-2.32.4c-1,.26-1.52.79-1.52,1.59Zm.79-19.22c-.44,0-.66.26-.66.79s.22.8.66.8.53-.27.53-.8S125.13,115.78,124.77,115.78Zm1.46,11.13a9.72,9.72,0,0,0,.8-1.79l.66-1.92a3,3,0,0,1,.66-1.52,3,3,0,0,1,.73-.47,5.26,5.26,0,0,1,.6-.2c.18,0,.26-.28.26-.73v-.79a6.82,6.82,0,0,1-2.51-.53,4,4,0,0,1-2-1.59l-.67.66v7.43Zm3.71-1.45a1.22,1.22,0,0,0,.93.79,6.66,6.66,0,0,0,1.33.13v-.92Zm0,8.22a1.67,1.67,0,0,0,1.46.79v-.79Zm1.46-4.51c-.17-.09-.26,0-.26.33s.09.42.26.33.4-.11.4-.33S131.67,129.17,131.4,129.17Zm3,5.17h.67v-.66h-.67Zm.67,7.42.66-.79h-.66Zm16.31,13.93c-.45,0-.67.26-.67.79s.22.8.67.8.66-.27.66-.8S151.87,155.69,151.43,155.69Zm10.34,22.41v-.8h-.67Zm10.34-86.85.93-.54c-.27-.44-.53-.68-.8-.72a5,5,0,0,0-.93-.07h-.79Zm.93,4.5h.53V95H173Zm1.32,32.75c0-.35-.13-.53-.39-.53s-.4.18-.4.53a.76.76,0,0,0,.53.27C174.28,128.77,174.36,128.68,174.36,128.5ZM175,92.17l.79-.92-.79-.54-.67.54ZM174.36,155H175l-.67-.79Zm2.13-38.45a2.47,2.47,0,0,0-1.13.53,1.33,1.33,0,0,0-.46,1.06,2.6,2.6,0,0,0,1.19-.26,1,1,0,0,0,.53-.93ZM175,132.88c.17.18.55.53,1.12,1.06s.95.89,1.13,1.06v-.66a14.37,14.37,0,0,0-.26-2,4.34,4.34,0,0,0-.53-1.72l-.67.66-.79.79v.8Zm0,8.09a4.31,4.31,0,0,0,.33,1.13c.22.57.37,1,.46,1.26h.4a3,3,0,0,0,1.46-.47,3.17,3.17,0,0,0,1.19-1.13,17.2,17.2,0,0,0-1.65-.53,2.17,2.17,0,0,1-1.4-.92,1.11,1.11,0,0,0-.46.19A.57.57,0,0,0,175,141Zm4.37-26.79a10,10,0,0,0,.14,1.53c.08.58.48.86,1.19.86H181l.8-.79v-.27c0-.71-.29-1.1-.86-1.19A10.2,10.2,0,0,0,179.4,114.18Zm.8,14.32c-.36,0-.53.23-.53.67s.17.66.53.66a.58.58,0,0,0,.66-.66A.59.59,0,0,0,180.2,128.5Zm1.59,7.3c-.44,0-.66.26-.66.79s.22.8.66.8.53-.27.53-.8S182.14,135.8,181.79,135.8Z"
    transform="translate(-82.87 -75.14)" />
  <path
    d="M257.77,177.83a8.79,8.79,0,0,1-2.59-.13,18.48,18.48,0,0,1-3.12-.86,17.83,17.83,0,0,1-2.91-1.4,5,5,0,0,1-1.86-1.72v-.66a7.38,7.38,0,0,0-1.26-3.12,10.29,10.29,0,0,0-1.79-1.86l-1.72-1.32a3.77,3.77,0,0,1-1.2-1.53,1.26,1.26,0,0,1-.06-.73,7,7,0,0,0,.06-.92.79.79,0,0,0-.26-.67,1.53,1.53,0,0,0-1.06-.06,2.3,2.3,0,0,0-.33.79,8.35,8.35,0,0,1-.33.93,4.73,4.73,0,0,1-1.07,1.66,16,16,0,0,1-1.79,1.66,15.84,15.84,0,0,0-1.72,1.59,2.48,2.48,0,0,0-.73,1.72v.66c.18-.08.51-.22,1-.39a3.5,3.5,0,0,1,1-.27q.14,0,.33.27a3.1,3.1,0,0,0,.33.39V172a.38.38,0,0,0,.14.26c0,.45-.09.69-.27.73a2.25,2.25,0,0,1-.6.07.9.9,0,0,0-.59.2q-.27.19-.27,1c-.09,0-.29.27-.59.8s-.51.79-.6.79c0-.17-.31-.22-.93-.13s-1,.09-1.06,0q-.66-1.07-1-.93a4.64,4.64,0,0,1-1.4.13,2.83,2.83,0,0,1-1.59,1.13c-.71.22-1.44.46-2.19.73a9,9,0,0,0-1.92.93,1.66,1.66,0,0,0-.79,1.46H215.6q-.14.66-.6.66h-1a14.37,14.37,0,0,1-6.17-1.33,4.8,4.8,0,0,1-2.85-4.77c0-.8,0-1.5.07-2.12a5.2,5.2,0,0,1,.73-2.12,2.38,2.38,0,0,0-1-.47,2.55,2.55,0,0,0-2,0,2.38,2.38,0,0,0-1,.47,1.73,1.73,0,0,1,.4.86,4.33,4.33,0,0,1,.13.86,2.38,2.38,0,0,0,.07.47,3,3,0,0,1,.06.46,2.77,2.77,0,0,1-2.32-.93,6,6,0,0,1-1.06-2.25,11.25,11.25,0,0,1-.33-2.72,8.89,8.89,0,0,0-.26-2.32,2.24,2.24,0,0,0-.27-.66,11.66,11.66,0,0,0-.66-1.13c-.27-.4-.51-.77-.73-1.13a2,2,0,0,1-.33-.66,13.27,13.27,0,0,1-.33-1.33c-.14-.62-.27-1.3-.4-2.05s-.27-1.44-.4-2.06a7.63,7.63,0,0,1-.2-1.32,4.32,4.32,0,0,0,.73-.53,2.53,2.53,0,0,0,.6-.67v-.13a3.52,3.52,0,0,0-.33-1.59,2.83,2.83,0,0,1-.34-1.33,3.78,3.78,0,0,1,.4-1.52,1.27,1.27,0,0,1,1.2-.86h.39a1.09,1.09,0,0,1,.47.53,1.56,1.56,0,0,1,.2.66l1.19-.53a2,2,0,0,0-1.19-1.06c-.53-.18-1-.33-1.53-.47a5.21,5.21,0,0,1-1.32-.53,1.17,1.17,0,0,1-.6-1.12.73.73,0,0,1,.4-.73,2.76,2.76,0,0,1,.92-.27,2.75,2.75,0,0,0,.93-.26c.27-.14.4-.47.4-1h4.11V141l-3.31-1.33v-.79a5.72,5.72,0,0,1,.86-3.58,4.36,4.36,0,0,1,2-1.46,10.31,10.31,0,0,1,2.18-.53,1.74,1.74,0,0,0,1.46-.93,2.25,2.25,0,0,1-.59-.2,1.11,1.11,0,0,1-.6-.46l-.13-.27a1.82,1.82,0,0,1,.73-1.66,5.1,5.1,0,0,1,1.72-.66l2-.4a3.8,3.8,0,0,0,1.52-.59c.09,0,.14-.31.14-.93a2.5,2.5,0,0,0-.14-.8c.18-.17.56-.5,1.13-1a5.09,5.09,0,0,0,1-1v-1.06l-1.33-1.85v-.67a2.7,2.7,0,0,1,.6-.66,4,4,0,0,1,.73-.53l.26-.13.27.13a2.23,2.23,0,0,1,.53.4c.17.18.26.31.26.4h5.17a1.3,1.3,0,0,0,.27.66c.17.26.35.4.53.4a3.74,3.74,0,0,0,2.78-.67,12.78,12.78,0,0,0,1.73-1.79,9.41,9.41,0,0,1,1.92-1.79,5,5,0,0,1,3.25-.66,5.25,5.25,0,0,1,1.85,1c1,.66,2,1.41,3.19,2.25l3.31,2.45a26.74,26.74,0,0,0,2.26,1.59,3.82,3.82,0,0,1,1.19,1.26,11.14,11.14,0,0,1,.93,2,16,16,0,0,1,.59,2.12,3.58,3.58,0,0,1,.07,1.53,1.94,1.94,0,0,1,1.26.73,12.16,12.16,0,0,1,.86,1.26,8.49,8.49,0,0,0,.8,1.13,1.47,1.47,0,0,0,1.19.46,2.06,2.06,0,0,0,.13,1.19c.18.53.38,1.11.6,1.73s.44,1.19.66,1.72a3.53,3.53,0,0,1,.33,1.19v.8l.27.26a.54.54,0,0,0,.4.14v.39a1,1,0,0,0,.13.4,5.21,5.21,0,0,1-2.39-.53,5,5,0,0,0-2.25-.53q0,.14.33,1.59c.22,1,.51,1.46.86,1.46h5.17c.18,0,.22.18.14.53a6.26,6.26,0,0,1-.47,1.2c-.22.44-.42.86-.59,1.25a1.11,1.11,0,0,0-.14.87l1.33,4.37c.18.71.57,1,1.19.93s1,.27,1.06,1.06a2.64,2.64,0,0,1-.59,1.06c-.4.53-.56.93-.47,1.2a1.7,1.7,0,0,0,.67,1.06c.35.26.7.51,1.06.73a5.63,5.63,0,0,1,1,.79,1,1,0,0,1,.33,1l-.4,2.78c0,.18.18.4.53.66a6.84,6.84,0,0,0,1.26.73,15.41,15.41,0,0,1,1.4.73,2.28,2.28,0,0,1,.79.66.24.24,0,0,0,.07.2.59.59,0,0,1,.06.33,18.48,18.48,0,0,1,.54,2.13,3.75,3.75,0,0,0,.53,1.59c.08.18.57.44,1.45.79l3,1.2c1.1.44,2.19.92,3.25,1.46a9,9,0,0,1,2.25,1.45c-.8.18-1.26.47-1.39.87a2.42,2.42,0,0,0-.07,1.26c.09.44.18.9.27,1.39a1.53,1.53,0,0,1-.4,1.32,4.41,4.41,0,0,1-2.19,1,23.3,23.3,0,0,1-5,.4,1.63,1.63,0,0,1-1.19-.4,4.44,4.44,0,0,1-.67-.86c-.18-.31-.35-.67-.53-1.06A2.57,2.57,0,0,0,257.77,177.83ZM207,159a6.63,6.63,0,0,1,1.26,2.32,3.55,3.55,0,0,0,1.39,2.06q1.34.39,2.13.66a6.32,6.32,0,0,0,1.45.33l1.33.13a16.12,16.12,0,0,0,1.72.07,6,6,0,0,0,1.86-.2,3.26,3.26,0,0,0,.93-.53l.86-.73a7.68,7.68,0,0,1,1.66-.93,9.51,9.51,0,0,1,1.66-.33,8,8,0,0,0,1.65-.33,6,6,0,0,0,2.79-2.92c.79-1.5,1.41-2.73,1.85-3.71a1.51,1.51,0,0,1,1.2-.86,6.83,6.83,0,0,0,1.46-.46V153a6.06,6.06,0,0,0-.8-.54q-.66-.39-.66-.66c0-.17.22-.51.66-1s.71-.73.8-.73a60.94,60.94,0,0,0,1.79-8,51.81,51.81,0,0,0,.72-7.89,4.23,4.23,0,0,0-.79-2.72,4.63,4.63,0,0,0-2.12-1.46,11.82,11.82,0,0,0-2.85-.6c-1-.08-2.06-.13-3.12-.13a6.48,6.48,0,0,0-1.92.8c-1,.53-2.08,1.12-3.18,1.79s-2.11,1.28-3,1.85-1.37.91-1.46,1A7.46,7.46,0,0,1,216,136a9.07,9.07,0,0,1-.4,1.26,5.05,5.05,0,0,0-.66.26.54.54,0,0,1-.4.13.4.4,0,0,0-.27.14l-2.51,2.38a.13.13,0,0,0-.14.14v.26a.87.87,0,0,0,.4.86c.27.14.4.56.4,1.26a12.9,12.9,0,0,1-.07,1.53,5.64,5.64,0,0,1-.26,1.19c-.14.4-.29.86-.47,1.39s-.39,1.2-.66,2a5.18,5.18,0,0,1-1.59,2.59,7.64,7.64,0,0,1-2.19,1.26c-.75.26-1.39.46-1.92.59s-.8.38-.8.73a1.68,1.68,0,0,0,.67,1.59,4,4,0,0,0,1.59.53l1.79.27a1.3,1.3,0,0,1,1.12.93,4.71,4.71,0,0,1-1.19,1.06A4.1,4.1,0,0,1,207,159Zm8,8q.26-.27-.27-.27c-.35,0-.48.09-.4.27a.42.42,0,0,0,.4.26C214.85,167.22,214.94,167.14,214.94,167Zm1.32-1.2c-.35,0-.53.2-.53.6s.18.6.53.6.53-.2.53-.6S216.62,165.76,216.26,165.76Zm.67-34.6h.66v-.67h-.66Zm5.3,34.6a9.2,9.2,0,0,1,.93-.72,1.36,1.36,0,0,0,.66-1.13h-1.59Zm6.5-47.33c.08-.18,0-.27-.27-.27s-.4.09-.4.27a.72.72,0,0,0,.47.26C228.66,118.69,228.73,118.61,228.73,118.43Zm-.67,45.48h.67v-.53h-.67Zm.67,1.85c-.36,0-.53.2-.53.6s.17.6.53.6.66-.2.66-.6S229.17,165.76,228.73,165.76Zm1.32-9.41a.73.73,0,0,0,.6.8,5.77,5.77,0,0,0,1.13.13h1.06l-.66-2.39a10,10,0,0,0-1.33.47A1.08,1.08,0,0,0,230.05,156.35Zm.67-37.39c-.27,0-.4.2-.4.59s.13.6.4.6.53-.2.53-.6S231.07,119,230.72,119Zm7.42,43.22h1.2v-1.32h-1.2Z"
    transform="translate(-82.87 -75.14)" />
  <path
    d="M296.62,178.89c.08-.88-.07-1.46-.47-1.72a14.29,14.29,0,0,0-1.65-.93c-.27-.18-.67-.42-1.2-.73a3.71,3.71,0,0,0-.93-.46c-.26,0-.57.31-.92.92a3.45,3.45,0,0,0-.53,1.2,5.56,5.56,0,0,0-1.66-.93,5.64,5.64,0,0,0-1.79-.53.85.85,0,0,0-.93.79c-.09.54-.49.8-1.19.8l.13-.53c0-.18.07-.8.2-1.86s.2-1.72.2-2v-.53l-.67,1.33a6.42,6.42,0,0,1-.79,1.33,4.88,4.88,0,0,0-.8.92c-.09.18-.35.27-.79.27h-.53a3.35,3.35,0,0,0,1.06-2.65,2.64,2.64,0,0,0-.2-1.39c-.13-.14-.51-.2-1.13-.2a1.18,1.18,0,0,0,.2.46c.13.22.15.38.07.46a3.66,3.66,0,0,1-.53.4,1.3,1.3,0,0,1-.67.27c-.26,0-.42-.2-.46-.6a7.47,7.47,0,0,1-.07-.86v-.66a.13.13,0,0,0,.14-.14.38.38,0,0,1,.13-.26l.26-.27c.09-.08.11-.26.07-.53a3.28,3.28,0,0,1-.07-.53,3.3,3.3,0,0,1,1.46-.46c.8-.13,1.2-.51,1.2-1.13v-4.77a.52.52,0,0,0-.34-.53l-.73-.33a4.06,4.06,0,0,1-.72-.47.92.92,0,0,1-.34-.79,12.36,12.36,0,0,1,.14-1.53c.08-.66.39-1,.92-1q0,1.32.87,1.59a5.92,5.92,0,0,0,1.79.26,2.67,2.67,0,0,0-.67-1.72,8.34,8.34,0,0,0-1.46-1.39c-.53-.4-1-.78-1.45-1.13s-.67-.66-.67-.93c0-.53.42-.88,1.26-1.06a10.61,10.61,0,0,1,1.93-.26,1.22,1.22,0,0,0,.06.33.93.93,0,0,1,.07.33A7,7,0,0,1,285,156c.22.57.38.86.47.86h.4v-3.31l-.4.13-.6-.33a3.82,3.82,0,0,1-.46-.33v-.54a1.59,1.59,0,0,0,.53-.19,1.41,1.41,0,0,1,.53-.2v-.53a7.48,7.48,0,0,0-.93-1.33c-.44-.53-.71-.79-.79-.79s-.32-.05-.67.13a2.09,2.09,0,0,1-.66.26,1.25,1.25,0,0,1-.13.53.55.55,0,0,0,0,.53,5,5,0,0,0,.2,1.06,6.1,6.1,0,0,0,.33,1.07h-.53a10.88,10.88,0,0,1-1.86-.27c-.88-.18-1.37-.4-1.46-.66a1.68,1.68,0,0,1,.33-1.59,16.51,16.51,0,0,1,1.4-1.6c.53-.53,1.06-1,1.59-1.45a2.43,2.43,0,0,0,.92-1.33c.09-.09.11-.35.07-.8s-.07-.75-.07-.92a2.27,2.27,0,0,0,.6-.2,1.93,1.93,0,0,1,.6-.2l.53-.53v-3.18a7.77,7.77,0,0,0,1.19-.6,1.1,1.1,0,0,0,.53-1l-.13-.26v-.27c-.62.27-1.22.53-1.79.8a10.3,10.3,0,0,1-1.92.66l-.14-.26.14-.27,1.06-1.06L285,137a4.28,4.28,0,0,1,1.06-.46,4.13,4.13,0,0,0,1.06-.47v-.26a.24.24,0,0,1,.07-.2.28.28,0,0,0,.06-.2l-.13-.27v-.26a3.5,3.5,0,0,1-1.86,1.19,8.5,8.5,0,0,1-2.12.27,1.51,1.51,0,0,1,.47-1.2,9,9,0,0,1,1-.72,10.23,10.23,0,0,0,1-.73,1.36,1.36,0,0,0,.46-1.06c0-.45-.51-1-1.53-1.73a13,13,0,0,0-2.18-1.32h-2.12c-.09,0-.2-.16-.34-.47a2.06,2.06,0,0,1-.2-.73c-.17-.17-.22-.62-.13-1.32s.13-1.15.13-1.33a3.3,3.3,0,0,0-.33-.8,3.15,3.15,0,0,1-.33-.79v-1.46c.09,0,.18.07.27.2a.44.44,0,0,0,.39.2c.09.26.27.82.54,1.66a8.31,8.31,0,0,1,.39,1.52.43.43,0,0,1,.27.13.36.36,0,0,0,.26-.13l.87-.46.86-.47a1.71,1.71,0,0,1-.6-.59,1.86,1.86,0,0,0-.6-.6v-.53a4.24,4.24,0,0,1,.27-1.06,8.31,8.31,0,0,1,.4-1.06c.08,0,.17.06.26.2a2.39,2.39,0,0,0,.27.33,1.15,1.15,0,0,0,.13.53l.26.53a1.64,1.64,0,0,0,1-.07,6,6,0,0,1,.86-.2,12,12,0,0,0-.13-1.52,3.45,3.45,0,0,1,0-1.39.46.46,0,0,1,.53-.53c.18.44.31.62.4.53a1,1,0,0,1,.66-.14v-2.12h-5.7a3.48,3.48,0,0,1,.13-.79,3.81,3.81,0,0,0,.13-.67,6.94,6.94,0,0,0,.6-.79,8.88,8.88,0,0,1,.6-.8c0-.17,0-.64-.07-1.39a2.6,2.6,0,0,1,.07-1.26c0-.44.17-.66.53-.66a.93.93,0,0,1,.59,1.06,3.24,3.24,0,0,1-.2,1.06l2.26-2.12a2.83,2.83,0,0,0-1.79-1.33,10.51,10.51,0,0,0-2.32-.26,2.54,2.54,0,0,1,.26-.67,2.39,2.39,0,0,0,.8-.2,2.53,2.53,0,0,1,.79-.19,2.63,2.63,0,0,1,1.13-.07c.58,0,.95.07,1.13.07a3.19,3.19,0,0,1,.46-.87,4.12,4.12,0,0,0,.6-1.39l.13-.13a.38.38,0,0,0-.13-.27c0-.08-.09-.2-.27-.33a.83.83,0,0,0-.39-.2,10.19,10.19,0,0,1-.47-1.32,12,12,0,0,0-.46-1.33,10,10,0,0,0,.86-.53,2.1,2.1,0,0,0,.73-.66v-.27a.27.27,0,0,1,.07-.2.28.28,0,0,0,.06-.2.27.27,0,0,0-.06-.19.52.52,0,0,1-.07-.34V100a2.76,2.76,0,0,0-.53-1.06,2.83,2.83,0,0,1-.53-1.06c-.09-.09-.11-.36-.07-.8s.07-.71.07-.8l-.27-.26c-.17-.18-.26-.31-.26-.4a4.34,4.34,0,0,1-.2-1.33c-.05-.7-.07-1.14-.07-1.32h1.2a2.57,2.57,0,0,0-.27-1.19,3.29,3.29,0,0,1-.26-1.46c0-1.77.84-2.65,2.52-2.65,1,0,1.54.33,1.72,1a2.83,2.83,0,0,0,1.33,1.66l.39-.4V85.54a2.38,2.38,0,0,1,.2-.59c.13-.31.24-.47.33-.47a12.28,12.28,0,0,0,1.66-.2,12.46,12.46,0,0,0,1.66-.33l.26-.26.27-.27a8.35,8.35,0,0,1,.79-.33,3.11,3.11,0,0,1,.67-.2c.44,0,.66.18.66.53v2.65c0,.09.15.29.46.6l.6.6c.09.18.27.59.53,1.26s.44,1.12.53,1.39a.54.54,0,0,1,.13.4v.39l-.92.07c-.53,0-.8.29-.8.73a2.93,2.93,0,0,0,.27.73,3.17,3.17,0,0,1,.26.73c0,.26,0,.71.07,1.32s.08,1.26.13,1.93.09,1.26.13,1.79.07.84.07.93a2.67,2.67,0,0,1-.66,2,2.85,2.85,0,0,0-.67,2.19l.27.13h.13a1.43,1.43,0,0,1,.46-.26,1.49,1.49,0,0,0,.47-.27,2.8,2.8,0,0,0,.13.6,2.89,2.89,0,0,1,.13.59,3.47,3.47,0,0,1-.13.8,3.77,3.77,0,0,0-.13.66L299,106a1,1,0,0,0-.13.4,5.29,5.29,0,0,1-.13.93,11.71,11.71,0,0,0-.2,1.46c-.05.53-.09,1-.13,1.46a9.59,9.59,0,0,0-.07,1.06v3.31c-.09.27-.18.49-.26.67a5.72,5.72,0,0,0-.27.92,1.23,1.23,0,0,1-.33.53,1.36,1.36,0,0,0-.33.53v5.44l.66.4v4.37a1.43,1.43,0,0,0-1.06,1.33,14.94,14.94,0,0,0-.13,1.86,7,7,0,0,0,.53,2.65,10,10,0,0,1,.66,2.78v3.05q.27,1.47.66,2.85a10.17,10.17,0,0,1,.4,2.85,7.42,7.42,0,0,1-.26,2,7.14,7.14,0,0,0-.27,2v1.59a10.3,10.3,0,0,0,.13,1.33c.09.62.2,1.28.33,2s.25,1.35.34,1.92a11,11,0,0,1,.13,1.26,4.65,4.65,0,0,0-.53,2.12,2.71,2.71,0,0,0,.73,1.59,10.41,10.41,0,0,0,1.72,1.73,18.44,18.44,0,0,0,2,1.39,3.4,3.4,0,0,0,1.66.6h9.55a.66.66,0,0,1,.59-.47,6,6,0,0,1,.73-.06,7.89,7.89,0,0,1,.8.06c.35,0,.53.2.53.47a1.3,1.3,0,0,1-.27.66,1.24,1.24,0,0,0-.26.53.47.47,0,0,0,.53.53,2.52,2.52,0,0,0,.86-.27,3.17,3.17,0,0,1,.73-.26h.93a5.15,5.15,0,0,0-.2-.8,3.53,3.53,0,0,1-.2-.92.55.55,0,0,0,.33-.2.5.5,0,0,1,.33-.2,31.6,31.6,0,0,1,3.58-1.06,16.23,16.23,0,0,1,3.71-.4,2.45,2.45,0,0,1-.59,1.72,5.3,5.3,0,0,1-1.26,1.06,6.19,6.19,0,0,1-1.26.6q-.6.19-.6.6c0,.71.29,1.1.86,1.19s.87.31.87.66a7.72,7.72,0,0,1-.14,1.4.76.76,0,0,1-.79.73c-.71,0-1.11-.22-1.2-.67a5,5,0,0,1-1.72,2.26v4.24h-.4v-1.19h-1.72v1.32c-.18,0-.71.07-1.59.2s-1.24.51-1.06,1.13h-1.79a2.41,2.41,0,0,0-1.79.66h.92v1.59h-8.61a2.21,2.21,0,0,0-1.6-.66.24.24,0,0,0-.19.07.32.32,0,0,1-.2.06h-.14a3.74,3.74,0,0,0-.59,1.06c-.22.53-.38.88-.47,1.06h-.53c-.09-.09-.33-.37-.73-.86s-.68-.73-.86-.73a3.48,3.48,0,0,0-1.59-.46A4.74,4.74,0,0,0,296.62,178.89Zm-13.4-64.31c-.17,0-.26.16-.26.47s.09.46.26.46.4-.15.4-.46S283.49,114.58,283.22,114.58ZM285,146.14a2,2,0,0,0-.66.73c-.18.31-.36.6-.53.86l.26.13h.13a.62.62,0,0,0,.67-.39,2.51,2.51,0,0,0,.13-.67Zm.53,19.89c-.27,0-.4.18-.4.53s.13.53.4.53.26-.18.26-.53S285.66,166,285.48,166Zm1.06-77.83c-.35,0-.53.19-.53.59s.18.6.53.6.4-.2.4-.6S286.8,88.2,286.54,88.2ZM288,172.79c0,.71.22,1.15.66,1.33l.53-.53A1.13,1.13,0,0,0,288,172.79Zm.66-24c-.26,0-.4.18-.4.53s.14.53.4.53.4-.17.4-.53S288.93,148.79,288.66,148.79Zm.53-34.74c-.26,0-.4.16-.4.47s.14.46.4.46.4-.15.4-.46S289.46,114.05,289.19,114.05Zm1.73,48.8h.39v-.53h-.39ZM293,152.5c-.89,0-1.33.4-1.33,1.2H293Zm0-62.18a3,3,0,0,0-.67,1.19l-.13.53h.8a3.44,3.44,0,0,1,.79-.26,1.7,1.7,0,0,0,.67-.27,1.09,1.09,0,0,0-.4-.66c-.27-.27-.45-.44-.53-.53H293Zm.53,35a.57.57,0,0,0-.47.33,1.25,1.25,0,0,0-.2.6h1.86a.77.77,0,0,0-.46-.66A1.64,1.64,0,0,0,293.57,125.32ZM293,88.73h.53L293,88.2Zm.53,6.49c-.18-.08-.27,0-.27.2s.09.29.27.2.26-.07.26-.2S293.74,95.22,293.57,95.22Zm0,34.88h1.06a1.42,1.42,0,0,0-.27-.8c-.18-.26-.35-.4-.53-.4h-.26Zm.4-42.43a8,8,0,0,0,.66.53c.35.26.53.44.53.53a3.45,3.45,0,0,1,.6,1.52c0,.49.41.73,1.12.73a5.56,5.56,0,0,0-.59-2.32,17.35,17.35,0,0,0-1.13-2.06H295a.38.38,0,0,1-.27-.13l-.26.13-.27.27a.38.38,0,0,0-.13.26.12.12,0,0,1-.13.14v.4Zm.53,54.09.66-.39h-.66Zm1.19-43.35.53-.53h-.53Zm1.46,46.67c.17-.18.13-.27-.14-.27s-.39.09-.39.27a.37.37,0,0,0,.33.26C297.08,145.34,297.15,145.26,297.15,145.08ZM298.34,93c-.26,0-.4.2-.4.6s.14.59.4.59.4-.2.4-.59S298.61,93,298.34,93Zm17.24,82.74h.4c.08,0,.2-.09.33-.27a.78.78,0,0,0,.2-.39l-.53-.53Zm2.65-3.85c-.26,0-.4.18-.4.53s.14.53.4.53.27-.17.27-.53S318.41,171.86,318.23,171.86Z"
    transform="translate(-82.87 -75.14)" />
  <path
    d="M342.89,161.65c0-.17,0-.64-.06-1.39s-.12-1.57-.2-2.45-.18-1.73-.27-2.52-.13-1.33-.13-1.59V152a17.22,17.22,0,0,1,1.06-6,17.28,17.28,0,0,0,1.06-6A47.06,47.06,0,0,0,343,128.7a46.42,46.42,0,0,1-1.39-11.2c0-2.12.35-3.47,1.06-4a9.88,9.88,0,0,0,1.72-1.79,2.65,2.65,0,0,0-.26-.87,2.4,2.4,0,0,1-.27-.86.59.59,0,0,1-.46-.2.67.67,0,0,0-.47-.2,3,3,0,0,1-.66.73c-.35.31-.53.56-.53.73v-6.1a1.17,1.17,0,0,1,1.13.67,1.81,1.81,0,0,1,.06,1.45,1.28,1.28,0,0,1,1.2-.79,2.28,2.28,0,0,0,1.45-.53l.14-.27a3.44,3.44,0,0,0-1-2c-.66-.79-1.26-1.19-1.79-1.19a1,1,0,0,0-.93.46,1.09,1.09,0,0,1-1.06.47.93.93,0,0,1-.33-.07,1.16,1.16,0,0,0-.33-.06l1.46-1.33a3.74,3.74,0,0,0-1.79-1.39c-.66-.22-1-.91-1-2.06a3.88,3.88,0,0,0,2.39-.79,15.26,15.26,0,0,0,2-1.79,17.73,17.73,0,0,1,1.92-1.79,3.83,3.83,0,0,1,2.46-.8.4.4,0,0,0-.14.27v.39a1.4,1.4,0,0,1-.33.73,1.46,1.46,0,0,0-.33.73q0,.14.27.33a.71.71,0,0,0,.39.2,4.92,4.92,0,0,0,.93-.26,4.24,4.24,0,0,1,1.06-.27h.27c.88,0,1.81,1.06,2.78,3.19a53.92,53.92,0,0,1,2.65,7.22c.8,2.7,1.48,5.29,2.06,7.76a29.19,29.19,0,0,1,.86,4.77v11.27a1.11,1.11,0,0,0-.46.6,1.87,1.87,0,0,0-.2.73,20.84,20.84,0,0,0,.79,5.63,52.39,52.39,0,0,0,1.86,5.51l.27.26.39.4a7.58,7.58,0,0,1,1.93,2.19c.48.84.92,1.63,1.32,2.38a15.23,15.23,0,0,0,1.19,1.93,1.73,1.73,0,0,0,1.4.79,3.49,3.49,0,0,0,2.45-.79,13.1,13.1,0,0,0,1.59-1.79,16.75,16.75,0,0,1,1.59-1.86,3.55,3.55,0,0,1,2.59-.86h1.06a5.35,5.35,0,0,0-1.46.73,1.61,1.61,0,0,0-.4,1.26h5.17c.36,0,.62-.35.8-1.06s.33-1.48.46-2.32a11.91,11.91,0,0,1,.6-2.32,1.46,1.46,0,0,1,1.46-1.06v.79a6.31,6.31,0,0,1-.47.73c-.22.31-.28.51-.19.6a1.37,1.37,0,0,0,.59,1.06,1.94,1.94,0,0,0,1,.26,3.32,3.32,0,0,0,1.12-.2,3.66,3.66,0,0,1,1.13-.19c0-.89-.26-1.42-.79-1.6a2,2,0,0,1-1.2-1.32c0-.09,0-.51.07-1.26a3.71,3.71,0,0,0-.07-1.39,3.88,3.88,0,0,0-.26-1,3.29,3.29,0,0,0-.4-.86h.66a2.36,2.36,0,0,1,.67.27l.79.39h.27c.44,0,.9-.42,1.39-1.26a12,12,0,0,1,.86-1.39A2.26,2.26,0,0,1,386,133a2,2,0,0,1-.8-1.66H389a5.47,5.47,0,0,0,.19,1.06,2.45,2.45,0,0,0,.47,1.06h.66a11.86,11.86,0,0,1,3.12-5,7.07,7.07,0,0,1,5.1-2.32h.4l5.3,1.32c.09.09.25.09.47,0a1.81,1.81,0,0,1,.6-.13,2.39,2.39,0,0,0-.93-2.25,10.4,10.4,0,0,0-2-.86,13.12,13.12,0,0,1-2-.8c-.62-.31-.93-1-.93-2.06a1.46,1.46,0,0,0,.66.14h.8c.09.09.4.33.93.73a3.67,3.67,0,0,0,.93.59,7.89,7.89,0,0,0,2.52-.2,18.28,18.28,0,0,1,2.38-.33q-1.32-4-1.13-5a1,1,0,0,1,1.2-.86c.66.09,1.46.24,2.39.46a2.37,2.37,0,0,0,2.45-.86c.17,0,.35.13.53.4a1.45,1.45,0,0,1,.26.79,3.71,3.71,0,0,1-.46.93,14.54,14.54,0,0,0-.93,2c-.31.8-.62,1.62-.93,2.45a6.51,6.51,0,0,0-.46,2.19,6.34,6.34,0,0,0,.07.67q.06.53.06.66c.18-.35.44-.82.8-1.39a3.55,3.55,0,0,1,1.19-1.26c-.26.88-.22,1.45.13,1.72a2.38,2.38,0,0,0,1.26.46l1.46.14a1.13,1.13,0,0,1,1,.59c.08.18.24.53.46,1.06a10.46,10.46,0,0,0,.73,1.46l1.06,1.86-10.08-1.06-.66,1.06c.35,0,1,0,1.86.13a20.81,20.81,0,0,1,2.71.47,13.06,13.06,0,0,1,2.52.86,2.43,2.43,0,0,1,1.4,1.32l-8.49-.53c-.18,0-.09.14.27.4l1.25.93,1.4,1q.66.46.66.6a.87.87,0,0,1-.53.8l-1.19.59-1.2.6a.85.85,0,0,0-.53.79h-3.45a3.4,3.4,0,0,0,.47.87c.31.48.37.82.2,1-.27.44-.49.69-.67.73a5.9,5.9,0,0,0-.59.2,3.38,3.38,0,0,0-.93.73,14.12,14.12,0,0,0-1.66,2.32,3,3,0,0,1-.66.73,4.34,4.34,0,0,1-.8.6v-2H399a8,8,0,0,0,.33,2.38,8.08,8.08,0,0,1,.33,2.39,3.37,3.37,0,0,1-1,2.19,13.83,13.83,0,0,1-2.39,2.12,21.16,21.16,0,0,1-2.85,1.72,14.61,14.61,0,0,1-2.39,1,3.07,3.07,0,0,0-2.65-2h-.66A6,6,0,0,0,391,158a34.92,34.92,0,0,0,6.43,2.85c2.39.79,4.77,1.5,7.16,2.12a26.11,26.11,0,0,1,5.57,2,4.64,4.64,0,0,1,1.59,1.26c.27.4.53.77.8,1.13a2.55,2.55,0,0,0,.92.79,4.14,4.14,0,0,0,2,.13,1,1,0,0,0,.07.34,1.22,1.22,0,0,1,.07.33q0,1.73-2.13,1.32a1.12,1.12,0,0,1,.47.6,2.06,2.06,0,0,1,.2.73l-.27.26c-.18.18-.31.27-.4.27l-.26.13h-.27c-.09,0-.13,0-.13-.13L409.46,169v-.67l.66-1.32h-1.86a7.22,7.22,0,0,0,1.53,4.24,7,7,0,0,0,3.78,2.79l-2.13,4.37a11.36,11.36,0,0,1-3.77,1,1.17,1.17,0,0,1-1.2-.93,12.5,12.5,0,0,1-.26-2.12,5,5,0,0,0-1-2.59c0,.44,0,1,.07,1.59s-.42.93-1.39.93h-.27a6.1,6.1,0,0,0,.33-1,8.75,8.75,0,0,1,.33-1v-.66c-.7-.44-1.28-.8-1.72-1.06a3,3,0,0,0-1.59-.4,3.16,3.16,0,0,0-2.85,1.59,8.81,8.81,0,0,0-1.26,3.18h-.27a1.12,1.12,0,0,1-1.19-.86c-.18-.57-.35-1.19-.53-1.86a5.15,5.15,0,0,0-.8-1.72c-.35-.48-.92-.6-1.72-.33-.18-.53-.49-1.41-.93-2.65A4.66,4.66,0,0,0,389.7,167a8.58,8.58,0,0,1-1,1.12q-.72.73-1.59,1.53c-.57.53-1.1,1-1.59,1.39a2.1,2.1,0,0,1-1.12.6,4.07,4.07,0,0,0-.34-.86,14.25,14.25,0,0,0-.86-1.59c-.35-.58-.71-1.11-1.06-1.6a1.42,1.42,0,0,0-1.06-.72c-.62,0-1,.44-1.19,1.32a8.42,8.42,0,0,1-.67,2.12,11.25,11.25,0,0,0-.92-1.72c-.45-.71-.93-1.06-1.46-1.06a.38.38,0,0,0-.27.13,3.21,3.21,0,0,1-.66.4,2,2,0,0,1-.8.26h-.53a3.17,3.17,0,0,1-.2-1c0-.49-.11-1-.19-1.53a7.47,7.47,0,0,0-.4-1.45c-.18-.45-.45-.67-.8-.67a2.58,2.58,0,0,0-1.26.33,2.49,2.49,0,0,1-1.26.34,2,2,0,0,1-1-.2,3.42,3.42,0,0,1-.86-1.13c-.18,1.06-.67,1.59-1.46,1.59v-.86c0-.4,0-.64.13-.73l.27-.27.39-.39.14-.27c-.09,0-.14,0-.14-.13v-.27l-1.72-.59q-1.34-.47-1.59-.6c-.62-.44-.84-.84-.66-1.19a3.41,3.41,0,0,0,.26-1.46h-2.39a5.87,5.87,0,0,0,.07.79,10.78,10.78,0,0,1,.07,1.2,4,4,0,0,1-.14,1.12c-.09.32-.26.47-.53.47h-5a1.18,1.18,0,0,0-.13.4,1.12,1.12,0,0,0-.13.53,2,2,0,0,0,1.52,1.19c.67.09,1,.58,1.13,1.46,0,.35,0,1.06.07,2.12s.06,1.77.06,2.12,0,.73.07,1.39a18.9,18.9,0,0,1,0,2.13,6.74,6.74,0,0,1-.4,2,1.15,1.15,0,0,1-1.12.87,9.8,9.8,0,0,1-2.79-.4,9.44,9.44,0,0,0-2.78-.4h-.27a10.26,10.26,0,0,0-.4,1.06,4.66,4.66,0,0,0-.26,1.06c-.09,0-.22.18-.4.53a2.2,2.2,0,0,0-.26.67c0,.17.17.44.53.79a3.44,3.44,0,0,0,.79.66h-.66a4.36,4.36,0,0,1-2.59-.79,4.6,4.6,0,0,0-2.72-.8v-3.18a.85.85,0,0,0,.73-.07,1.11,1.11,0,0,0,.6-.46,2.54,2.54,0,0,0-.2-1.39,5.66,5.66,0,0,1-.33-1.26h-1.46l-.33-2.59a1.53,1.53,0,0,0-1.66-1.52Zm-.66-61.26a1.37,1.37,0,0,0,1.33.8v-.8Zm2.12,13.93h.53v-.67h-.53Zm2.52,65.23h-.66v-.66Zm2-46.14.6.6a2.76,2.76,0,0,0,.73.59,9.76,9.76,0,0,1,.79-1.92,4.1,4.1,0,0,0,.53-1.92v-.66a5.91,5.91,0,0,0-1.46,1.26,13.07,13.07,0,0,0-1.19,1.39l-.13.26Zm2.39-32.35a.87.87,0,0,0-.93.86,9.39,9.39,0,0,0-.13,1.39v1.06a6,6,0,0,0,.92-.4c.71-.35,1.06-.66,1.06-.92a4.67,4.67,0,0,0-.19-1,2.39,2.39,0,0,0-.47-1Zm5.56,65.23h.67v-.66h-.67Zm.67-7.16a3.36,3.36,0,0,0,1.46-.39,3.43,3.43,0,0,0,1.19-.93h-2.65Zm5.17-5.43h.79l-.79-.66Zm10.61-3.85c-.36,0-.53.22-.53.67s.17.66.53.66.53-.22.53-.66S373.61,149.85,373.26,149.85Zm.66,1.33c-.18-.18-.27-.11-.27.2s.09.46.27.46a.43.43,0,0,0,.27-.4A.24.24,0,0,0,373.92,151.18Zm2.65,1.32q.66-.25.66-1.32h-.66Zm.66,10.48v-.66h-.66Zm.54-6.63a5.44,5.44,0,0,1,.46.53q.19.27.33.27c.62,0,1-.11,1.13-.34a2,2,0,0,0,.2-1,2.54,2.54,0,0,0-.2-1,.83.83,0,0,0-.86-.47.43.43,0,0,0-.27.13c-.09,0-.2.16-.33.47a2.41,2.41,0,0,1-.46.73v.66Zm1.45,5.3c.45-.08.67-.48.67-1.19v-.79Zm1.86-17.1h.8l-.8-.66Zm1.46,11.14h.53l-.53-.53Zm0,3.31h.53v-.66h-.53Zm5.83,11.94h.14c.08,0,.13,0,.13-.07s0-.07.13-.07l.27.14.66.66.13.26a.38.38,0,0,1-.13.27l-2-.53Zm.67-27.05c-.09.09-.23.19-.4.33s-.27.24-.27.33v4.64H389a6.21,6.21,0,0,0,.79-1.52,4.45,4.45,0,0,1,1.19-1.79,10.4,10.4,0,0,0-.59-1,6.12,6.12,0,0,0-.73-1H389Zm0-7.3a2.89,2.89,0,0,0,.79,1.66c.53.66,1,1,1.46,1h.4a22.38,22.38,0,0,0,2.58-.87,2.09,2.09,0,0,0,1.53-2,.43.43,0,0,0-.13-.27l-.67-.66a3.72,3.72,0,0,1-.66-.8v-.66l.26-.53a1.53,1.53,0,0,1,.27-.4.35.35,0,0,0,.13-.26c-.18-.18-.51-.53-1-1.06a5.15,5.15,0,0,0-1-.93l-.66.53v5.3h-.66a2.2,2.2,0,0,1-.67-.26,2.24,2.24,0,0,0-.66-.27h-.66c-.09,0-.22.09-.4.27Zm2,15.25a5.82,5.82,0,0,0,.07,1,1.9,1.9,0,0,0,.6.86l2.32-.93a1.77,1.77,0,0,0,1-1.86v-1.06q0-.53-.66-.66L393,150.38v-.92c0-.62.11-1,.34-1.2a1.35,1.35,0,0,0,.33-1.06,2,2,0,0,0-.2-1c-.13-.22-.51-.33-1.13-.33a1.06,1.06,0,0,0-1,.72,4.73,4.73,0,0,0-.4,1.73,13.22,13.22,0,0,0,0,2C391,151,391,151.49,391,151.84Zm0-9.28q0,.13.27.33a4.69,4.69,0,0,1,.4.33c0,.09,0,.14.13.14h.27l.26-.14-.66-.66-.27-.13c-.09,0-.13,0-.13.06s-.05.07-.13.07Zm2,27.71c-.35,0-.53.22-.53.67s.18.66.53.66.53-.22.53-.66S393.37,170.27,393,170.27Zm.67-.66h1.59a1.56,1.56,0,0,0-.6-1.19,10.22,10.22,0,0,0-1-.8ZM395,143.89c.18.44.62.66,1.33.66a2.27,2.27,0,0,0,.86-.2.83.83,0,0,0,.46-.86v-.27l-.33-.33a1.74,1.74,0,0,0-.46-.33l-.27-.13-.26.13a4.86,4.86,0,0,0-1.33,1.33Zm.67,25.72c-.36,0-.53.22-.53.66s.17.67.53.67.53-.22.53-.67S396,169.61,395.67,169.61Zm0-40.44a3.48,3.48,0,0,0,.39,1.66,3.92,3.92,0,0,1,.4,1.92h.8a5.89,5.89,0,0,1,.33-2,2.19,2.19,0,0,1,1.39-1.33,2.81,2.81,0,0,0-2.39-1.32h-.26c-.09,0-.2.09-.33.26s-.25.27-.33.27ZM399,162.32a1.36,1.36,0,0,0-.79,1.32H399Zm2,3.31h.66V165Zm1.19-33.28a4.09,4.09,0,0,0,.27,1.19,15.45,15.45,0,0,0,.66,1.66,7.6,7.6,0,0,0,.86,1.46c.31.4.6.6.86.6h.8v-.6a1,1,0,0,0-.13-.6,2.12,2.12,0,0,0-.33-.66,1.69,1.69,0,0,1-.34-.8.36.36,0,0,0,.14-.26.54.54,0,0,1,.13-.4,2.23,2.23,0,0,1,.4-.53,1.16,1.16,0,0,1,.06-.33,1.31,1.31,0,0,0,.07-.46,2.6,2.6,0,0,0-.26-1.26,7.11,7.11,0,0,0-1.07-1.26l-.39-.14a1.38,1.38,0,0,0-1.33.8A3.6,3.6,0,0,0,402.16,132.35Zm0,4.91h.93a1.15,1.15,0,0,0-.93-1.2Zm1.46-16.45h.66a7.43,7.43,0,0,0,.93.34,6.35,6.35,0,0,1,.93.33l-.6.06a4.71,4.71,0,0,1-.73.07,9.89,9.89,0,0,1-1.06-.07,1,1,0,0,1-.92-.73Zm1.86,54.63c.35,0,.53.25.53.73s-.18.73-.53.73-.53-.24-.53-.73S405.12,175.44,405.48,175.44Zm.66-7.16c-.18-.08-.26,0-.26.27s.08.4.26.4.27-.2.27-.33S406.32,168.37,406.14,168.28Zm2.65-40.84c.09-.17,0-.26-.33-.26s-.42.09-.33.26a.43.43,0,0,0,.4.27A.24.24,0,0,0,408.79,127.44Zm.67,13.79q-.13.27-.6.27a1,1,0,0,1-.73-.27c-.09-.17.13-.26.66-.26S409.54,141.06,409.46,141.23Zm0-27.31v.26c0,.09,0,.14.13.14a3.35,3.35,0,0,1-.07.73c0,.22-.29.37-.73.46v-.66c0-.71.22-1.11.67-1.2ZM415,122.8c.18,0,.16,0-.06.14a3.83,3.83,0,0,1-.86.19c-.36.05-.73.12-1.13.2a4.68,4.68,0,0,1-.86.14c-.18,0-.16,0,.06-.14a4.34,4.34,0,0,1,.87-.2c.35,0,.73-.11,1.12-.19A4.68,4.68,0,0,1,415,122.8Zm7.17,4.64c0-.17-.25-.44-.73-.79s-.73-.58-.73-.66a1.83,1.83,0,0,0,.26-.67,3.61,3.61,0,0,0,.13-.66c-1.23-.35-2.18-.6-2.85-.73a5.74,5.74,0,0,1-1.39-.4.61.61,0,0,1-.4-.53c0-.22,0-.68.14-1.39l2.25-.66a4.55,4.55,0,0,1,1.53.53,21,21,0,0,1,2.18,1.19c.89.53,1.81,1.11,2.79,1.72a3.18,3.18,0,0,1-1.59,2.59c-1.06.75-1.91,1.31-2.52,1.66-.45-.09-.67-.49-.67-1.2Zm-4.78-4q.13-.27-.33-.27t-.33.27c.09.17.2.26.33.26S417.32,123.64,417.41,123.47Zm3.32-8V117l-.67-.8Zm2,4.11a2.19,2.19,0,0,1,1,.33,1,1,0,0,1,.6.86h-2.52a1.64,1.64,0,0,1,.26-.73A.79.79,0,0,1,422.72,119.62Z"
    transform="translate(-82.87 -75.14)" />
  <path
    d="M450.43,180.88a4.89,4.89,0,0,0-1.06-2,1.88,1.88,0,0,0-1.73-.79,2.4,2.4,0,0,0-1.52.79,3.42,3.42,0,0,1-3.71.53,2.64,2.64,0,0,1-1-1.39A11.07,11.07,0,0,1,441,176c-.09-.79-.18-1.54-.26-2.25a13.34,13.34,0,0,1-1.92.4q-1,.13-.87,1.59a7.58,7.58,0,0,0-2.58-2.65,5.54,5.54,0,0,0-3.52-1.2,25.13,25.13,0,0,0-.33-2.85,17,17,0,0,0-.59-2.85,12.4,12.4,0,0,0-.14-1.52c-.09-.67-.18-1.28-.26-1.86s-.18-1.35-.27-2.32c0-.71,0-2-.06-4s-.07-4-.07-6.16,0-4.22.07-6.17.06-3.31.06-4.11a25.44,25.44,0,0,0,.27-3.91,14,14,0,0,1,.4-3.65c-.09-.17.06-.46.46-.86s.6-.64.6-.73a17.73,17.73,0,0,0,.06-2.58,18.9,18.9,0,0,1,0-2.13,6.28,6.28,0,0,1,.53-2.05,7.69,7.69,0,0,1,1.66-2.25v-.14c0-.08,0-.13.07-.13s.06,0,.06-.13l.53.26c.18,0,.38.16.6.47s.42.42.6.33a2.72,2.72,0,0,0,1.19.06,2.57,2.57,0,0,0,1.06-.19l2,3.84a2.11,2.11,0,0,0,.66.13,1.05,1.05,0,0,0,.4.14.38.38,0,0,1,.27.13l.13.13a.38.38,0,0,0,.13.27l-.13.13a4.65,4.65,0,0,1-.07.6,6,6,0,0,0-.06.72,4.32,4.32,0,0,1,1.92-.39,6.68,6.68,0,0,1,2.12.33,4.89,4.89,0,0,1,1.79,1.06,3,3,0,0,1,.93,1.92,1.52,1.52,0,0,1-.73,1.46,20.19,20.19,0,0,1-2,1.33c-.75.44-1.46.88-2.12,1.32s-1,.84-1.13,1.2a1,1,0,0,0,.2,1.32,6.5,6.5,0,0,0,1.59,1,20.31,20.31,0,0,1,1.86,1,1.56,1.56,0,0,1,.86,1.33,1.17,1.17,0,0,1-.6,1.12,4.08,4.08,0,0,1-1.26.47c-.44.09-.92.2-1.45.33a1.77,1.77,0,0,0-1.2,1,1.48,1.48,0,0,0,.2,1.4,15.3,15.3,0,0,0,1,1.39c.35.44.66.86.92,1.26a1.16,1.16,0,0,1,.27,1,1.48,1.48,0,0,1-.8,1,10.76,10.76,0,0,1-1.06.33,2,2,0,0,0-.93.53,1.75,1.75,0,0,0-.26,1.46,2,2,0,0,0,.46,1.26,1.41,1.41,0,0,0,1.13.59c.62-.08.84-.28.66-.59s-.09-.82.27-1.53h.26l.27-.13c.09,0,.17.09.26.26a1.11,1.11,0,0,1,.14.4,3.67,3.67,0,0,1-.2,2.06,3.33,3.33,0,0,1-.8.79,3,3,0,0,0-.79.87,3.34,3.34,0,0,0-.07,2.12,4.42,4.42,0,0,1,1.59,0c.27.09.62-.09,1.06-.53v.13a6.35,6.35,0,0,1-.26,3.18,5.84,5.84,0,0,0-.27,3,3.46,3.46,0,0,0,.53,1.79,5.08,5.08,0,0,0,2,1,6.33,6.33,0,0,1,2.52-.87,26.54,26.54,0,0,0,2.85-.53,10.87,10.87,0,0,0,2.52-.92,3.1,3.1,0,0,0,1.53-1.93l.72.4a1.64,1.64,0,0,0,.73.27h.14a3.48,3.48,0,0,0,1.52-.47,2.89,2.89,0,0,1,1.13-.46l.53.13a.51.51,0,0,1,.26.07,1,1,0,0,0,.4.06,1.17,1.17,0,0,0,.53.14c.09,0,.11-.07.07-.2s.55-.29,1.79-.47a2.48,2.48,0,0,1-.8.13h-.79l.13-.13a1.25,1.25,0,0,1,.6.2,1.18,1.18,0,0,0,.46.2c.09-.18.24-.57.46-1.19s.38-1,.47-1.2a2,2,0,0,0,.86-.39,2.31,2.31,0,0,1,.73-.4,10.73,10.73,0,0,0,.53-1.86h.27q1.32,0,1.32.93a.3.3,0,0,1-.06.2.24.24,0,0,0-.07.2v.4a6,6,0,0,0-.6.86c-.31.48-.42.82-.33,1a7.31,7.31,0,0,0,.07.86c0,.4.08.87.13,1.4a11.54,11.54,0,0,0,.2,1.45,8.64,8.64,0,0,0,.26,1.06,1.39,1.39,0,0,1-.86,1c-.4.13-.79.24-1.19.33a3,3,0,0,0-1,.4c-.26.18-.35.53-.26,1.06a.83.83,0,0,0,1.06.8c.09,0,.13,0,.13-.14a12.76,12.76,0,0,0,1.92-1.06c.84-.53,1.4-.88,1.66-1.06l.4.66c-.18.27-.53.82-1.06,1.66s-1.11,1.73-1.72,2.65-1.22,1.77-1.79,2.52-1,1.13-1.26,1.13a2.48,2.48,0,0,1-.8.13c-.53,0-.8-.13-.8-.4a4.54,4.54,0,0,1,.14-.66,4.17,4.17,0,0,0,.13-.79v-.27a.48.48,0,0,0-.07-.26,1,1,0,0,1-.06-.4,2.34,2.34,0,0,0-.47-1.33,2.86,2.86,0,0,0-1-.93l-1.59,2,1.46,1.06a1.38,1.38,0,0,1-.93,1,3.28,3.28,0,0,0-1.33,1,10.39,10.39,0,0,0-.86,2.19,11.34,11.34,0,0,1-.4,1.39,1.63,1.63,0,0,1-.86.86,7.21,7.21,0,0,1-2.39.47,9.09,9.09,0,0,1-2.25.2A13.69,13.69,0,0,1,450.43,180.88Zm-11.8-68.15a2.48,2.48,0,0,0-.73.33,2.73,2.73,0,0,1-.73.33h-.4a.42.42,0,0,1-.46,0c-.14-.09-.2-.18-.2-.27a30.42,30.42,0,0,1-2.59-5.43,23.57,23.57,0,0,1-1.39-5.57,6.76,6.76,0,0,1,.53-1.53,29.07,29.07,0,0,1,2.78-5c.53-.75.93-1.12,1.2-1.12.08,0,.48.06,1.19.2s1.48.28,2.32.46,1.68.33,2.52.46a12.28,12.28,0,0,0,1.66.2c.17.18.35.36.53.53s.35.36.53.53a3.82,3.82,0,0,0,.53.67c.18-.44.42-.69.73-.73a6,6,0,0,0,1.13-.33,1,1,0,0,1,.79.33,3.51,3.51,0,0,1,.47.79,6.67,6.67,0,0,0,.39.8.79.79,0,0,0,.73.33c.09-.09.27-.24.53-.46s.44-.33.53-.33a.4.4,0,0,0,.27-.14.3.3,0,0,0,.2-.06.24.24,0,0,1,.2-.07,4.5,4.5,0,0,1-.27,2.78l1.06-.13c0,.18,0,.64-.13,1.39s-.13,1.26-.13,1.53a8.15,8.15,0,0,0,.66,1.32,6.39,6.39,0,0,0,.8,1.2,7.61,7.61,0,0,0-.4,1.19,19.2,19.2,0,0,1-.67,1.92,11.5,11.5,0,0,1-.92,1.86,1.48,1.48,0,0,1-1.2.86l-.59-.06a4.82,4.82,0,0,0-.73-.07,4.24,4.24,0,0,1-1.06-.27,2.51,2.51,0,0,0-.67-.13,7.54,7.54,0,0,0-1.52.86l-1.2.93a6.45,6.45,0,0,1-1.32.8,6.59,6.59,0,0,1-1.92.46c-.8.18-1.33,0-1.6-.59A1.25,1.25,0,0,0,438.63,112.73ZM437,98.67c-.18.09-.25.31-.2.66s.15.49.33.4.37-.17.33-.53S437.3,98.67,437,98.67Zm6.09,27.18c.27,0,.42.2.47.6s-.07.6-.33.6-.56-.2-.6-.6S442.78,125.85,443.13,125.85Zm6.63-24.13c.18-.18.14-.26-.13-.26s-.35.08-.26.26.06.4.2.4S449.76,102,449.76,101.72ZM449.9,176c-.18,0-.27.14-.27.4s.09.36.27.27A.5.5,0,0,0,449.9,176Zm.66-7.29v-.79l-.66.26Zm3.85,10.48c0-.18-.12-.27-.34-.27s-.33.09-.33.27C454.18,179.6,454.41,179.6,454.41,179.16Zm3-7.3a4.35,4.35,0,0,0-2,.67,1.91,1.91,0,0,0-.93,1.26,1.58,1.58,0,0,0,.46,1.39,4.29,4.29,0,0,0,2.06,1.06c.08,0,.2-.24.33-.73a8.25,8.25,0,0,0,.26-1.59,7.79,7.79,0,0,0,0-1.53C457.61,172,457.54,171.78,457.46,171.86Zm11.93-15.38c.17-.08.28-.06.33.07a.31.31,0,0,1-.07.33c-.17.18-.31.16-.39-.07S469.21,156.48,469.39,156.48Z"
    transform="translate(-82.87 -75.14)" />
  <path
    d="M557.7,177.7c-.27.09-.82.28-1.66.59a10.22,10.22,0,0,0-1.66.73,1.56,1.56,0,0,0-.86,1.26c-.13.67-.42,1-.86,1,0-1.86-.25-3-.73-3.45a2.47,2.47,0,0,0-1.86-.6,16.62,16.62,0,0,0-2.38.34,3.17,3.17,0,0,1-2.46-.53,1.7,1.7,0,0,1-.86-1.13,11.28,11.28,0,0,1-.06-1.13,1.68,1.68,0,0,0-.2-.86c-.14-.22-.6-.33-1.4-.33a1.66,1.66,0,0,0-1.65,1.12,2,2,0,0,1-2.06,1.13,2.14,2.14,0,0,1,.8-1.72,2.14,2.14,0,0,0,.79-1.73c0-.53-.15-.86-.46-1a2.93,2.93,0,0,0-1.13-.2,11.67,11.67,0,0,0-1.32.07,1.62,1.62,0,0,1-1.07-.2,4.85,4.85,0,0,1-1-1c-.49-.57-.82-.86-1-.86h-.27a.3.3,0,0,1-.2-.06.24.24,0,0,0-.2-.07,1.82,1.82,0,0,0-1.59.73,1.69,1.69,0,0,1-1.46.73c-.09,0-.29-.27-.59-.8s-.65-1.12-1-1.79-.66-1.3-.93-1.92a4.46,4.46,0,0,1-.39-1.19v-.4c.08,0,.24-.18.46-.53s.29-.58.2-.66a5.49,5.49,0,0,0-1-1.07c-.57-.53-.86-.83-.86-.92a2.27,2.27,0,0,1-.46-1c-.13-.48-.25-.86-.33-1.13l-1.86-15.77a11.36,11.36,0,0,0-.6-1.6,15.18,15.18,0,0,0-.86-1.72,6.88,6.88,0,0,0-1.26.27,9.59,9.59,0,0,0-1.26.39,2.17,2.17,0,0,0-.4,1.13c-.08.58-.22.86-.39.86-.09.18-.33.14-.73-.13a1.93,1.93,0,0,0-.86-.4,7.41,7.41,0,0,0,.26,1.33,2.49,2.49,0,0,1,.13,1.32l-.33.34a.52.52,0,0,1-.33.19h-5.3a7.92,7.92,0,0,1-1,1.13l-1,1a1.31,1.31,0,0,1-.53-.27,1.27,1.27,0,0,0-.67-.26,6.08,6.08,0,0,1-.13,1.59c-.09.26.13.75.66,1.46a4.45,4.45,0,0,0-1.72.66,3.16,3.16,0,0,0-.86,1,9.66,9.66,0,0,0-.6,1.33,11.49,11.49,0,0,1-.79,1.66,3.47,3.47,0,0,0-.6-.4,1.78,1.78,0,0,0-.6-.27q-.13-.12-.06,0c0,.09,0,.14-.2.14q0,1.46.33,1.65a1.44,1.44,0,0,0,.8.2,1.09,1.09,0,0,1,.79.33,3.69,3.69,0,0,1,.33,2.06,3.17,3.17,0,0,0-2,.53,4.48,4.48,0,0,0-1.12,1.39q-.47.87-.93,1.86a5.46,5.46,0,0,1-1.39,1.79,1.57,1.57,0,0,1-1.13.4h-1.39a12.38,12.38,0,0,0-1.26.06.8.8,0,0,0-.73.73,16.5,16.5,0,0,0-.33,3.32,5.21,5.21,0,0,1-1,3.31,7.88,7.88,0,0,0-3.05.47,5.13,5.13,0,0,0-1.79,1.26,11.61,11.61,0,0,0-1.39,1.92,15.52,15.52,0,0,1-1.72,2.32,3.09,3.09,0,0,1-.67-1.46,12.68,12.68,0,0,0-.33-1.46,1.7,1.7,0,0,0-.73-1,3.42,3.42,0,0,0-2.12-.07,4.36,4.36,0,0,0-.79.6,2.84,2.84,0,0,0-.67.73l.33.33a2,2,0,0,0,.47.33h.66c0-.09.18-.22.53-.4a2.54,2.54,0,0,1,.66-.26c.09,0,.22.09.4.26s.27.31.27.4v.13a.38.38,0,0,0,.13.27l-.13.26c-.09.09-.31.29-.67.6a3,3,0,0,0-.66.73,7.45,7.45,0,0,0-.66,1.92c-.27,1-.45,1.7-.53,2.06-.71-.36-1.42-1.46-2.12-3.32a54,54,0,0,1-1.93-6.3c-.57-2.34-1-4.57-1.39-6.69a32.43,32.43,0,0,1-.53-4.51v-.93a2.1,2.1,0,0,0,.6.33c.31.13.55.25.73.33h.53a2.91,2.91,0,0,0,.73-.66c.31-.35.55-.62.73-.8v-.26a13.29,13.29,0,0,1-2-1.06,13.13,13.13,0,0,1-2.12-1.19,29.56,29.56,0,0,1-.47-3.52c0-.84-.07-1.88-.07-3.11a18.19,18.19,0,0,1,.34-3.58,19.07,19.07,0,0,0,.33-3.58,25.18,25.18,0,0,0-.33-4.12,24.7,24.7,0,0,1-.34-4.24v-.26c0-.09.18-.31.54-.67a3.74,3.74,0,0,1,.79-.66v-.26c-.44-1-.79-1.82-1.06-2.52s-.51-1.46-.73-2.26a8.39,8.39,0,0,1-.33-2.25,2.68,2.68,0,0,1,.4-1.53,2.46,2.46,0,0,0,.39-1.39v-.26a3.74,3.74,0,0,0-.33-1.07,4.69,4.69,0,0,1-.33-.92.53.53,0,0,1,.47-.6l1.06-.13a2.9,2.9,0,0,0,1.26-.53,3.59,3.59,0,0,0,1.06-2.06c.17-.17.17-.57,0-1.19a5.88,5.88,0,0,1-.27-1.2,6.92,6.92,0,0,1-1.52-.19c-.58-.14-.86.15-.86.86v.26l1.45,1.46v.66a6.51,6.51,0,0,1-1,.34,4.67,4.67,0,0,1-1,.19v-4.77a2.54,2.54,0,0,0,2.33-1.19,5,5,0,0,0,.72-2.65,4.68,4.68,0,0,1,1.4.39,16.73,16.73,0,0,1,2.12,1.06,19.32,19.32,0,0,1,2.05,1.4,4.2,4.2,0,0,1,1.2,1.26,3.67,3.67,0,0,0-1.53,1.06,2,2,0,0,1-1.39.79h-.4a1.59,1.59,0,0,1-.59-.26,1.87,1.87,0,0,0-.6-.27v1.33l1,.06a17.39,17.39,0,0,1,1.86.27,5.8,5.8,0,0,1,1.72.6c.49.26.73.57.73.92A3.8,3.8,0,0,1,484.9,121a3.83,3.83,0,0,0-1.06,2.72,1.29,1.29,0,0,0,.66,1.19c.45.27.91.54,1.4.8a8,8,0,0,1,1.39,1,2.14,2.14,0,0,1,.66,1.66c0,.18,0,.51-.06,1s-.07.77-.07.86a3.62,3.62,0,0,1-.33,1.06,4.66,4.66,0,0,0-.33.93,1.73,1.73,0,0,0,1.12,1.85,6.13,6.13,0,0,0,2.06.4c0,1,.09,2.28.26,3.91a16.13,16.13,0,0,0,.53,3.12,8.19,8.19,0,0,1,.67,1.26c.35.75.57,1.22.66,1.39v.66a6.78,6.78,0,0,1-.93.6c-.53.31-.88.51-1.06.6v.66a18.53,18.53,0,0,0,1.46,3.85,1.69,1.69,0,0,0,1.06.86l1.13.13c.4.05.95.64,1.65,1.79l.67-.66a14.78,14.78,0,0,1,.13-5.51,3.44,3.44,0,0,1,1.53-2,22.62,22.62,0,0,1,2.32-1.06,5.69,5.69,0,0,0,2.52-2.52q1.32-2.52,2.12-4.24a11.54,11.54,0,0,1,3.18-3.72c.09.36.22.84.4,1.46a1.66,1.66,0,0,0,.92,1.2,4.34,4.34,0,0,1,.6-.8c.31-.35.55-.53.73-.53s.31,0,.66.26a1.92,1.92,0,0,0,.67.4c.17,0,.59,0,1.26-.13a12.19,12.19,0,0,1,1.26-.13,5.2,5.2,0,0,0-.34-1.2,1.91,1.91,0,0,1-.19-1.19c0-.09.19-.22.59-.4a3.17,3.17,0,0,1,.73-.26,3.33,3.33,0,0,1,.4-.33c.18-.14.26-.25.26-.34a5.83,5.83,0,0,0-.19-.86c-.14-.48-.29-1-.47-1.65s-.33-1.22-.46-1.79a6.68,6.68,0,0,1-.2-1.26,4.67,4.67,0,0,1,.73-2,3.74,3.74,0,0,1,1.26-1.59.78.78,0,0,1,.73.66,3.81,3.81,0,0,1-.07,1.19,4.2,4.2,0,0,0-.07,1.26.81.81,0,0,0,.73.73,3.47,3.47,0,0,0,.4-.6,1.57,1.57,0,0,0,.27-.73,24,24,0,0,1,.26-2.65q.27-2,.27-2.52a.56.56,0,0,1,.26-.46.9.9,0,0,1,.53-.2,2.27,2.27,0,0,1,.6.2,2.41,2.41,0,0,1,.73.46V120a1.52,1.52,0,0,1-.27,1.06,2.85,2.85,0,0,0-.26,1.59c.09,0,.17.07.26.2s.18.2.27.2c.09-.18.28-.53.6-1.06l.59-1.06h.4a3.51,3.51,0,0,1,1.66.46c.57.31,1.17.64,1.79,1s1.23.72,1.85,1.12a4.9,4.9,0,0,0,1.59.73,2,2,0,0,0,1.07,0c.53-.09.83-.09.92,0a7.19,7.19,0,0,1,.34,1.39,4,4,0,0,0,1.52,2.79l1.59,1.19a6.78,6.78,0,0,1,1.39,1.39,3.45,3.45,0,0,1,.6,2.13,2.41,2.41,0,0,1-.4,1.39,2.29,2.29,0,0,0-.4,1.26,1,1,0,0,0,.67,1.06,1.14,1.14,0,0,1,.66,1.19v.8a15.61,15.61,0,0,1-.26,1.65,10.7,10.7,0,0,1-.4,1.66v.27a2.12,2.12,0,0,0,.26,1.19,1.75,1.75,0,0,0,.67.6l.86.4a2.18,2.18,0,0,1,.86.72,2,2,0,0,1,0,1.07,2,2,0,0,0,0,1.06c.09,0,.31.26.66.79a2.83,2.83,0,0,1,.53,1.06c.09.27.22.71.4,1.33a20.15,20.15,0,0,1,.46,2c.14.71.27,1.37.4,2a6.73,6.73,0,0,1,.2,1.32l1.19,1.73,1.46,6.63,3.32,3.05,3.18,2.38,2.65,1.86,2.39,3.31.93.8Zm-79.16-52,2.12-2.12.13-.53h-2.25Zm.66,0c-.35,0-.53.2-.53.6s.18.59.53.59.66-.2.66-.59S479.64,125.72,479.2,125.72Zm0,28.91h.8V154Zm1.46,7.16h.53v-.53Zm1.19-40.18c.18-.18.11-.27-.2-.27s-.46.09-.46.27a.43.43,0,0,0,.4.27A.24.24,0,0,0,481.85,121.61Zm0-2.52c-.18-.18-.26-.11-.26.2s.08.46.26.46a.71.71,0,0,0,.27-.46C482.12,119.16,482,119.09,481.85,119.09Zm1.46,52h.53v-.66h-.53Zm1.06-17.77a8.64,8.64,0,0,0,.93,3.38,24.77,24.77,0,0,0,1.19,2.45.13.13,0,0,0,.14.14h.26q.93,0,1.26-1.59a6.47,6.47,0,0,1,1.66-3.05V154a3.1,3.1,0,0,1-.33-.39q-.21-.27-.33-.27Zm.8-5.57a9.19,9.19,0,0,0,.33,2.32,1.47,1.47,0,0,0,1.52,1.26,2.45,2.45,0,0,0,1.4-.4,2.46,2.46,0,0,1,1.39-.39V150h-2l-.27-1.6c-.09-.44-.15-.86-.2-1.26a9.33,9.33,0,0,0-.19-1.12v-.4a.6.6,0,0,1,.19-.53,3,3,0,0,1,.54-.27,1.29,1.29,0,0,0,.53-.39,1.66,1.66,0,0,0,.19-.93,9.27,9.27,0,0,0-.13-1.39,1,1,0,0,0-1.06-.87,4.69,4.69,0,0,1-1.13,3.25A4.7,4.7,0,0,0,485.17,147.73Zm2-8.88h2c-.18-.44-.38-.69-.6-.73a3.35,3.35,0,0,0-.73-.07.93.93,0,0,0-.33.07,1.29,1.29,0,0,1-.33.06Zm10.47,15.78h.8V154h-.8ZM508.9,141.5a6,6,0,0,0,.33-1,9.12,9.12,0,0,1,.33-1,3.21,3.21,0,0,0,.4-.66,2.25,2.25,0,0,0,.27-.67c0-.26-.22-.53-.67-.79h-.66a1.25,1.25,0,0,1-.4.46c-.17.14-.26.25-.26.33Zm6.63.66c-.35,0-.53.2-.53.6s.18.6.53.6.53-.2.53-.6S515.88,142.16,515.53,142.16Zm.66-6.63a1.35,1.35,0,0,0,.8-1.32h-.8Zm2,4.51.67-.53h-.67Zm.67-8.09a2.49,2.49,0,0,0,.26,1.33c.18.26.62.4,1.33.4a3.23,3.23,0,0,0-1.59-2.79Zm2.52,3.85a.81.81,0,0,0,.53.86,3.41,3.41,0,0,0,1.19.2,1,1,0,0,0-.46-.93,3.85,3.85,0,0,0-1.13-.4ZM534,138.18c-.35,0-.53.23-.53.67s.18.66.53.66.53-.22.53-.66S534.31,138.18,534,138.18Zm1.33,20.42c-.18-.08-.27,0-.27.27s.09.35.27.26a.23.23,0,0,0,.26-.26A.24.24,0,0,0,535.29,158.6Zm1.32-6.89a12.58,12.58,0,0,0,.87,1.26,7.84,7.84,0,0,0,1.39,1.52l.66-.79a4.3,4.3,0,0,0-1.19-2,11,11,0,0,0-2-1.59l-.53-.53a2.05,2.05,0,0,1-.4-.53,6,6,0,0,0-.13,1.19,2.94,2.94,0,0,0-.13.93v.4Zm0-5h.67V146h-.67Zm2.66-.66c-.45,0-.67.24-.67.73s.22.73.67.73.53-.25.53-.73S539.62,146,539.27,146Zm-.53,14.45.66.66a4,4,0,0,1,.73-.53,1.74,1.74,0,0,0,.73-.92V159c-.09,0-.2-.08-.33-.26a.59.59,0,0,0-.47-.27c-.18,0-.42.18-.73.53l-.59.67v.79Zm2.38,2.79c-.26,0-.39.19-.39.59s.13.6.39.6c.44,0,.67-.2.67-.6S541.56,163.25,541.12,163.25Zm.8,3.31q-.66,0-.66.6c0,.39.22.59.66.59s.53-.2.53-.59S542.27,166.56,541.92,166.56Zm3.45,2.92a1.41,1.41,0,0,0,1.59,1.59,2.79,2.79,0,0,0-.27-1.46C546.51,169.34,546.07,169.3,545.37,169.48Zm.53,5.57h1.19l2.06-.34c.83-.13,1.25-.24,1.25-.33v-.66l-1.59-.53a11.32,11.32,0,0,0-1.39-.46l-1.13-.34.27.53a.24.24,0,0,0,.07.2.32.32,0,0,1,.06.2v.14a.54.54,0,0,1-.4-.14,1.74,1.74,0,0,0-.39-.26Z"
    transform="translate(-82.87 -75.14)" />
  <path
    d="M589.65,213.76h-1.72v2.13c0,.53-.62.79-1.86.79a9.53,9.53,0,0,1-2.45-.6c-1.19-.39-2.43-.86-3.71-1.39a31,31,0,0,1-3.45-1.65q-1.53-.87-1.53-1.53a1.14,1.14,0,0,1-.66.46,2.17,2.17,0,0,0-.66.34h-.4a6.43,6.43,0,0,0-.4-.67,1.24,1.24,0,0,1-.26-.53,9.76,9.76,0,0,1,.79-1.52,8.09,8.09,0,0,1,.93-1.39,5.35,5.35,0,0,1,2.39-2.13A5.3,5.3,0,0,0,579,204h-.13a.35.35,0,0,1-.26-.13,6.17,6.17,0,0,0-1.73.4,3.76,3.76,0,0,1,1.13-2.65,9.48,9.48,0,0,1,2.32-1.86h.4a3.2,3.2,0,0,1,1.13.6c.39.3.72.55,1,.73v.26a2.05,2.05,0,0,0-.53.4,1.53,1.53,0,0,0-.27.4v3.71l.8.4.93-1.2a5.29,5.29,0,0,0,.4,1.26,2.73,2.73,0,0,0,1.06,1.13,1.18,1.18,0,0,0,.39-1.39,1.45,1.45,0,0,1,.4-1.53l1.06-.26v2.91a.4.4,0,0,1,.27.14c.17.17.31.22.4.13s.24-.49.72-.93a3.09,3.09,0,0,1,.87-.66h1.06c.7,0,1.1.2,1.19.6a5.6,5.6,0,0,1,.13,1.26,3.94,3.94,0,0,0,.2,1.25c.14.4.6.6,1.39.6l.54,1.59a4.13,4.13,0,0,0,.59-1.46,3.82,3.82,0,0,1,.6-1.45,5,5,0,0,1,.2-.87,2.52,2.52,0,0,1,.33-.86l.26-.13.27.13a2.13,2.13,0,0,1,.33.66,2.1,2.1,0,0,0,.33.67h.53c.09-.18.2-.42.33-.73a1.93,1.93,0,0,0,.2-.6,1.15,1.15,0,0,0,1.2.66,4.19,4.19,0,0,0,.46-.79c.22-.44.38-.66.46-.66l.14-.14.26-.13c.53,0,.84.18.93.53a3.86,3.86,0,0,1,.07,1.26,15.11,15.11,0,0,0-.07,1.53,1.6,1.6,0,0,0,.4,1.19h.4a1.34,1.34,0,0,0,1-.53,11.46,11.46,0,0,0,.93-1.26,5.71,5.71,0,0,1,1.06-1.26,2,2,0,0,1,1.39-.53l.27.13a1.93,1.93,0,0,1,.59.86,1.84,1.84,0,0,0,.6.87c.18.17.62.66,1.33,1.45a10.5,10.5,0,0,0,1.45,1.46c.18-.62.36-1.19.54-1.72a4.85,4.85,0,0,0,.26-1.46c.62,0,1.37-.05,2.25-.13a11.86,11.86,0,0,0,2.52-.53,6.4,6.4,0,0,0,2.06-1.13,2.42,2.42,0,0,0,.86-1.92l-.26-.53a1.48,1.48,0,0,1-.14-.67c0-1.15,0-2.52.14-4.11a16.4,16.4,0,0,1,.79-4.37,2.41,2.41,0,0,1,.47,1.26,7,7,0,0,0,.26,1.39,3.82,3.82,0,0,0,.53,1.13c.22.31.68.46,1.39.46h.4v-.26a.54.54,0,0,1,.07-.27.65.65,0,0,0,.06-.26v-.4a4.4,4.4,0,0,0-.26-1.2c-.18-.53-.36-1.06-.53-1.59s-.36-1-.53-1.39a2.46,2.46,0,0,1-.27-.86,4,4,0,0,0-.4-.93c-.26-.53-.44-.79-.53-.79a.4.4,0,0,1-.26-.14c-.09,0-.13-.09-.13-.26a.59.59,0,0,1,.66-.67c.44,0,.66-.39.66-1.19a3.15,3.15,0,0,0-.33-.79c-.22-.45-.49-1-.79-1.53s-.6-1.11-.87-1.59a8.37,8.37,0,0,1-.53-1.13V168.68h-.46c-.22,0-.33-.09-.33-.26a3.87,3.87,0,0,1-.4-1.53c-.09-.75-.13-1.21-.13-1.39a1.41,1.41,0,0,1,.2-.53c.13-.27.24-.4.33-.4v-.93a1.62,1.62,0,0,0-.33-1.06c-.23-.26-.45-.53-.67-.79l-.66-.8a1.82,1.82,0,0,1-.33-1.19c.71,0,1.06.22,1.06.66s.31.66.93.66h.79c-.09-.26-.24-.68-.46-1.26a4.18,4.18,0,0,1-.33-1.12v-.27a10.17,10.17,0,0,1,.4-2.85c.26-.93,1.1-1.39,2.51-1.39a5.67,5.67,0,0,1-3.44-1.46,5.16,5.16,0,0,1-1.2-2.25c-.17-.8-.33-1.51-.46-2.13a1.13,1.13,0,0,0-1.26-.92,6.33,6.33,0,0,0,.07-2.52,31.93,31.93,0,0,0-.67-3.65q-.47-1.92-1-3.51a5.88,5.88,0,0,0-1.06-2.12H610.2l-.53-.4a3.62,3.62,0,0,1-.59-.4,1,1,0,0,0-.6-.27h-.26a1.4,1.4,0,0,0-.93.34,1.43,1.43,0,0,1-.93.33,6.57,6.57,0,0,1-2.92-.73,10.76,10.76,0,0,0-2.92-1,7.53,7.53,0,0,0-2.25.14,2.74,2.74,0,0,1-2.65-.8l-1.72,1.19-1.73,1.2a2.11,2.11,0,0,1-1,.33l-.73.07a2,2,0,0,1-1.59-2.13,3,3,0,0,1,.26-1.26,3,3,0,0,0,.27-1.26,1,1,0,0,0-1.13,1.13,5.61,5.61,0,0,1-.6,2.19q-.39.66-1,1.86c-.4.79-.69,1.19-.86,1.19h-.4v-3c-.44,0-.82.38-1.13,1.13s-.62,1.54-.93,2.38-.64,1.64-1,2.39a1.57,1.57,0,0,1-2.39.86,1.93,1.93,0,0,0-1.06-.26c-.53.79-.93,1.41-1.19,1.85s-.53.86-.8,1.26a2.57,2.57,0,0,0-.4.73,4.78,4.78,0,0,0,.67,2.45c.53,1.11,1.17,2.28,1.92,3.52s1.53,2.39,2.32,3.45a8,8,0,0,0,1.86,2,9.8,9.8,0,0,0,2.78.93,6.3,6.3,0,0,1,2.79,1.33,3.43,3.43,0,0,0,.73.93c.48.53.77.79.86.79h.66a3.22,3.22,0,0,0,1.53-.39,3.62,3.62,0,0,1,1.79-.4c.61,0,1.43,0,2.45.06a3.3,3.3,0,0,1,2.19.73c.08,0,.17.25.26.73a4.23,4.23,0,0,0,.27,1h.26a4.29,4.29,0,0,0,1.79-.4,12.82,12.82,0,0,0,1.66-.93c.53-.35,1-.66,1.52-.93a3.48,3.48,0,0,1,1.66-.4c0,.18,0,.67.13,1.46s.14,1.29.14,1.46a2,2,0,0,0,.33.66,2.12,2.12,0,0,1,.33.67v.13a2.3,2.3,0,0,1-.53,1.46,3.4,3.4,0,0,1-1.06.93,2,2,0,0,0-1.53.06,1.67,1.67,0,0,1-1.52-.06c-.09,0-.13-.16-.13-.47v-1a10.69,10.69,0,0,1,.13-1.46,1.43,1.43,0,0,1,.33-.73c.22-.31.38-.46.46-.46v-.67L600,164.57c-.08,0-.13.09-.13.27v.39a2.32,2.32,0,0,0,.4,1.53,6.71,6.71,0,0,0,1.46,1.13.88.88,0,0,0-.6.39c-.22.27-.42.4-.6.4v.93c.18,0,.31.11.4.33a1.8,1.8,0,0,0,.4.6l.4.66a4.88,4.88,0,0,1-.2.8,5.16,5.16,0,0,0-.2.79,22.82,22.82,0,0,1-3.45-1.59,3.4,3.4,0,0,1-1.39-1.39,2,2,0,0,1-.13-1.39c.13-.44.28-1,.46-1.59h-.4a9.38,9.38,0,0,1-3.24,1.52,19.09,19.09,0,0,1-3.92.33,5.31,5.31,0,0,1-2.32-.53,16.77,16.77,0,0,1-2.12-1.19c-.66-.44-1.28-.84-1.85-1.2a3.23,3.23,0,0,0-1.66-.53,2.58,2.58,0,0,0-1.86.53v-.53a4.33,4.33,0,0,0,.47-1.06,4.82,4.82,0,0,0,.33-1.19v-.53a4.3,4.3,0,0,0-1.79.33,4,4,0,0,1-1.66.33v-1.46a14.39,14.39,0,0,1-1.66.34,3.18,3.18,0,0,1-1.12-.07c-.36-.09-.53-.35-.53-.8v-.39a5.5,5.5,0,0,0,.46-.73,4,4,0,0,1,.6-.87c0-.17,0-.17-.14,0s-.13.23-.13.14a2.48,2.48,0,0,1-1-.47,2.48,2.48,0,0,0-1-.46c-.18,0-.35.24-.53.73s-.18.82,0,1a7.34,7.34,0,0,1-.53-1.32,2.67,2.67,0,0,1-.07-1c.05-.31.09-.66.14-1.06s.06-1,.06-1.66h-1.19v2.92a4.82,4.82,0,0,1-2.12-2.19,11.32,11.32,0,0,1-.93-2.85h-.53l-.26.27a.38.38,0,0,1-.27.13h-.4A2,2,0,0,1,565,153a1.64,1.64,0,0,1-.66-.6c0-.35,0-.84-.07-1.46s-.07-1-.07-1.19V147.2c0-1.24.07-2.52.2-3.84a17.49,17.49,0,0,1,.67-3.52c.3-1,.72-1.61,1.26-1.79a4.6,4.6,0,0,1,1.85.07c.35.13.53-.47.53-1.79a4.74,4.74,0,0,0-.26-.86,4.53,4.53,0,0,1-.27-.87c0-.08.22-.35.66-.79l.93-.93h.67a5.91,5.91,0,0,1,.46.66,4.33,4.33,0,0,0,.6.8,1,1,0,0,1,0-1c.17-.39.3-.68.39-.86a5.6,5.6,0,0,1,.93.14c.44.08.71,0,.8-.14A5,5,0,0,0,574.8,130a5.15,5.15,0,0,1,1.19-2.45,6,6,0,0,1,1-1.53,2.54,2.54,0,0,0,.73-1.52,4.33,4.33,0,0,0-.07-.8,1.82,1.82,0,0,0-.73-.93c1-.17,1.77-.31,2.39-.39s1-.67,1.06-1.73h3.32a4.88,4.88,0,0,1-.2.8,3.5,3.5,0,0,0-.2.93v.39a2.43,2.43,0,0,0,.93-.86c.26-.4.53-.82.79-1.26.09.09.24.25.47.47a1,1,0,0,1,.33.59h.92a.91.91,0,0,1,.4-.4l.53-.26a2.38,2.38,0,0,1-.59-.46c-.23-.22-.34-.38-.34-.47v-.53c0-.26.2-.51.6-.73s.77-.42,1.13-.6v1.86a3.74,3.74,0,0,1-.27,1.53,3.48,3.48,0,0,0-.26,1.39,1.2,1.2,0,0,0,1.13-.6,4.69,4.69,0,0,0,.46-1.32,5.35,5.35,0,0,1,.46-1.4,1.16,1.16,0,0,1,1.13-.66,2.27,2.27,0,0,1,1.59,0,2.81,2.81,0,0,1,.73.73c.22.31.44.6.66.86a1.8,1.8,0,0,0,1.4.4h.13l.26-.53a1.53,1.53,0,0,1,.27-.4l.26-.13.27.13h.13l.67.66a6.94,6.94,0,0,1,.46.53,2.68,2.68,0,0,0,.33.4l.27.14h.26a.4.4,0,0,0,.27-.14,1.13,1.13,0,0,1,.46-.46,1.24,1.24,0,0,1,.46-.2,1,1,0,0,0,.34-.07,1.16,1.16,0,0,1,.33-.06h.26v2.12l.27.26c.26.27.44.23.53-.13l.13-.13.27-.27a1.74,1.74,0,0,0,.26-.39h.27c.44,0,.84.31,1.19.92a6.39,6.39,0,0,0,.8,1.2,2.08,2.08,0,0,0,.72-1.2,1.15,1.15,0,0,1,1-.92,3,3,0,0,1,1-.34,5.88,5.88,0,0,0,1.13-.33c.09-.17.2-.37.33-.59a2.55,2.55,0,0,1,.33-.47h.14c.61,0,.92.36.92,1.06v.67l-.53.39a3.3,3.3,0,0,0,.2.87c.14.39.25.68.33.86q0-.14.27-.27c.18-.09.26-.17.26-.26h.54a1.84,1.84,0,0,1,.39.92,3.85,3.85,0,0,0,.27.93c0,.09.09.14.26.14h.27a2.09,2.09,0,0,0,1.39-.73,2,2,0,0,0,.73-1.26,4.65,4.65,0,0,0-.07-.6.72.72,0,0,0-.33-.6h.27c1.5,0,2.34.58,2.52,1.73a8.33,8.33,0,0,1-.14,3.31,3.67,3.67,0,0,1,2.92-1.85v.66a1.32,1.32,0,0,0-.26.4l-.27.53c0,.53.11.84.33.92a2.76,2.76,0,0,0,1,.14,1.23,1.23,0,0,0,1-.4,3.13,3.13,0,0,0,.53-.93q.2-.53.33-.93a.52.52,0,0,1,.53-.39c.36,0,.67.28.93.86a7.76,7.76,0,0,1,.6,2,19.26,19.26,0,0,1,.26,2.18c0,.71.07,1.2.07,1.46a18.05,18.05,0,0,1,2.92-.33,2.83,2.83,0,0,1,2.65,1.39,28.31,28.31,0,0,0,1.06,5.57,18.85,18.85,0,0,1,.8,5.44,3.42,3.42,0,0,1-.53,2.12,2.64,2.64,0,0,0-.54,1.72v.4c0,.18.05.62.14,1.33s.13,1.19.13,1.46h.66a1.67,1.67,0,0,1,.67-.4,1.49,1.49,0,0,0,.53-.27v.67a1.87,1.87,0,0,1-.27,1.06,1.59,1.59,0,0,0-.26.93h1.72a7,7,0,0,1-.66,2.91,6.93,6.93,0,0,0-.67,2.92,2.55,2.55,0,0,0,.47,1.86,2.6,2.6,0,0,0,.93.53,4.78,4.78,0,0,1,.92.39c.31.18.47.58.47,1.2,0,.79-.27,1.17-.8,1.12s-.79.2-.79.73.48,1.29,1.46,2.26a4.87,4.87,0,0,1,1.45,3.58,4.15,4.15,0,0,1-.73,2.72,6.2,6.2,0,0,1-1.65,1.39,17.14,17.14,0,0,0-1.66,1.06,2,2,0,0,0-.73,1.72,1.82,1.82,0,0,0,.2.8c.13.26.51.4,1.13.4a1.94,1.94,0,0,0-.53,1.46v.66c0,.17,0,.55.06,1.13s.11,1.14.2,1.72.15,1.13.2,1.66.07.88.07,1.06l-.6.53c-.31.26-.51.44-.6.53v.79l.27.53c.09.27.22.4.4.4v.4c0,1.41,0,3.18-.14,5.3s-.22,3.94-.39,5.44c-.18.27-.6.93-1.26,2a13.75,13.75,0,0,0-1.13,2,4.26,4.26,0,0,1-1.26,2.12,6.81,6.81,0,0,0-1.39,1.86c-.45.61-.93.81-1.46.59s-1,0-1.46.6c-.09,0-.27.35-.53,1.06a4.72,4.72,0,0,1-.66,1.33.54.54,0,0,0-.4.13c-.27.17-.4.31-.4.4a1.08,1.08,0,0,1-.33.2,1.17,1.17,0,0,0-.46.33,6.08,6.08,0,0,1-.67.39,2.23,2.23,0,0,1-.93-1.45c-.17,0-.44.19-.79.59l-1.13,1.26c-.4.44-.79.84-1.19,1.2a3.24,3.24,0,0,1-1,.66c-.17.09-.73.28-1.65.6a17.3,17.3,0,0,0-1.66.59,1.53,1.53,0,0,0-.27.6,1.56,1.56,0,0,1-.26.6,3.74,3.74,0,0,1-1.06.59c-.53.22-1.09.47-1.66.73s-1.11.49-1.59.66a4.79,4.79,0,0,1-.86.27h-.53a1.1,1.1,0,0,1-.2-.6,2.6,2.6,0,0,0-.2-.73c-.27.71-.6,1.11-1,1.2a6.22,6.22,0,0,1-1.25.13c-1,0-2.22,0-3.72-.07a14.45,14.45,0,0,1-3.58-.46,4.53,4.53,0,0,1-1.72-.93c-.36-.35-.71-.73-1.06-1.13a4.12,4.12,0,0,0-1.46-1,7.8,7.8,0,0,0-2.92-.4Zm-21.48-69.08c-.35,0-.53.2-.53.6s.18.6.53.6.4-.2.4-.6S568.44,144.68,568.17,144.68Zm0,65a3.42,3.42,0,0,1,.33-1.65,7.59,7.59,0,0,1,1.26-1.53,2.16,2.16,0,0,0,2.12-.26,7.4,7.4,0,0,0,1.4-1.59c.39-.62.79-1.2,1.19-1.73a2,2,0,0,1,1.66-.79.36.36,0,0,0-.14.26v.4a4.47,4.47,0,0,1-1,1.59c-.49.53-1,1.06-1.52,1.59a20.31,20.31,0,0,1-1.53,1.39c-.49.4-.86.69-1.13.87a.8.8,0,0,1,.4.19c.18.14.27.25.27.34v.53a1.78,1.78,0,0,1-.6,1.26,2.1,2.1,0,0,1-1.53.59c-.53,0-.86-.13-1-.4A2.38,2.38,0,0,1,568.17,209.65Zm9.42,0a5.41,5.41,0,0,0,.66,2.66,5.05,5.05,0,0,0,.53-.67,1.24,1.24,0,0,0,.26-.53l.27-.13a1,1,0,0,0-.66-1.06A3.08,3.08,0,0,0,577.59,209.65Zm3.18-72.39a2,2,0,0,0,.26,1.06l.53.79c.18,0,.31-.13.4-.4a2.06,2.06,0,0,0,.13-.66C582.09,137.52,581.65,137.26,580.77,137.26Zm2.52-7,.4.53.26.13a.66.66,0,0,0,.27-.06.48.48,0,0,1,.26-.07,6.33,6.33,0,0,0,1.06-3.32,2.08,2.08,0,0,0-1.52.8,2.27,2.27,0,0,0-.73,1.46ZM584,164.7c-.18,0-.26.18-.26.53s.08.53.26.53c.44,0,.66-.17.66-.53S584.39,164.7,584,164.7Zm.4-40.44a2.69,2.69,0,0,1,2,1.06,6.63,6.63,0,0,1,1.32,2.26,1.41,1.41,0,0,0,.53-.73,2.52,2.52,0,0,0,.27-.86q-.27-.27-1.26-1.53c-.66-.84-1.26-1.26-1.79-1.26a1,1,0,0,0-.66.4A1.07,1.07,0,0,0,584.35,124.26Zm2.38,89.5c.54,0,.84-.13.93-.39l.27-.8a2.49,2.49,0,0,1,.46-.79,1.79,1.79,0,0,1,1.39-.4,1.39,1.39,0,0,0-.46-1,1.29,1.29,0,0,0-.86-.46,1.59,1.59,0,0,0-1.06.46,5.21,5.21,0,0,0-.93,1.06c-.27.4-.62.95-1.06,1.66C585.58,213.54,586,213.76,586.73,213.76Zm3.72-88.17a1.24,1.24,0,0,0-.93.4h.93Zm0,87.51a1.77,1.77,0,0,0,.66,1.46V213.1Zm1.06-92v.86a.89.89,0,0,0,.66.86v-1.06a8.12,8.12,0,0,1,.07-1q.06-.6-.6-.6a.54.54,0,0,0-.13.4Zm2.39,43.49c-.62,0-1,.18-1.2.53h1.2Zm2.38-39.91a1.11,1.11,0,0,0-1.19,1.13,15.69,15.69,0,0,0-.13,1.79,1.85,1.85,0,0,0,.06.39,1.66,1.66,0,0,1,.07.4,3.62,3.62,0,0,0,.93-1.66A8.17,8.17,0,0,0,596.28,124.66Zm-.13,3.18c-.27,0-.4.2-.4.6s.13.6.4.6.53-.2.53-.6S596.5,127.84,596.15,127.84Zm2.92,34.21a.67.67,0,1,0,0,1.33c.26,0,.39-.22.39-.67S599.33,162.05,599.07,162.05Zm.92-32.48a2.55,2.55,0,0,0-1.45,2.38,2,2,0,0,0,1.39-.53,1.55,1.55,0,0,0,.59-1.19C600.52,129.79,600.35,129.57,600,129.57ZM599.2,126a2.93,2.93,0,0,0,.33,1.32.84.84,0,0,0,1,.53,1.09,1.09,0,0,0,.47-.59,2.1,2.1,0,0,1,.33-.6V126Zm2.12,40.44a4.1,4.1,0,0,0,3.85-.07,11.72,11.72,0,0,1,3.31-1.26,2.33,2.33,0,0,1,1.19.4v.26a1.9,1.9,0,0,1-1.19,1.6,5.82,5.82,0,0,0-1.72,1.32,7,7,0,0,1-.14,1,2,2,0,0,1-.26.86,2.87,2.87,0,0,1-1.46.59,2.7,2.7,0,0,1-1.33.07,11,11,0,0,1-1.25-2.39C601.83,167.67,601.5,166.87,601.32,166.43Zm1.06-34v-1.32l-.66.79Zm.4-3.44v-.67h-.4Zm-.4,84.06h.4v-1.59h-.4Zm1.73-87.25q-.27-.25-.27.33c0,.4.09.56.27.47a.44.44,0,0,0,0-.8Zm.92,2.52c-.09-.08-.13,0-.13.27s0,.4.13.4.27-.07.27-.2A.73.73,0,0,0,605,128.37Zm3.05-.13a1.27,1.27,0,0,0-1.26.66,3,3,0,0,0-.33,1.33C607.55,130.23,608.08,129.57,608.08,128.24Zm1.06,2.52a4.18,4.18,0,0,0-1.26,1.26,3,3,0,0,0-.59,1.66,3,3,0,0,0,1.52-.53,1.46,1.46,0,0,0,.86-1.2C609.67,131.33,609.5,130.94,609.14,130.76Zm-1.45-6.5a2.5,2.5,0,0,0,.26,1,1,1,0,0,0,.93.59h.26C609,124.79,608.48,124.26,607.69,124.26Zm5.83,4.11-.46.67a.82.82,0,0,0-.2.53h.66Zm-.53,5.17a5.23,5.23,0,0,0,1,1.26,2.16,2.16,0,0,0,1.53.73,7.58,7.58,0,0,0-.66-2.45c-.45-1.1-.89-1.75-1.33-1.92a5.71,5.71,0,0,0-.33.92,5.15,5.15,0,0,0-.2.8v.66Zm4.51-3.31c-.09-.18-.14-.11-.14.2s0,.42.14.33.26-.2.26-.33S617.67,130.23,617.5,130.23Zm0,5H618v-.93h-.53Zm1.72,17.37h.53v-.53h-.53Zm.53,20.82c-.26,0-.4.17-.4.53s.14.53.4.53a.53.53,0,0,0,0-1.06Zm0-33.42a.75.75,0,0,0,.4.66,1.39,1.39,0,0,0,.79.27v-1.86a1.78,1.78,0,0,0-.79.2A.74.74,0,0,0,619.75,140Zm1.19-5.7c-.26,0-.39.15-.39.46s.13.47.39.47.27-.16.27-.47S621.12,134.34,620.94,134.34Zm1.86,67.76a4.46,4.46,0,0,0-1.52.59,1.64,1.64,0,0,0-.47,1.39,1.22,1.22,0,0,0,.86-.53,3,3,0,0,1,1.13-.79v-.66ZM622,172.26c0-.17-.12-.26-.34-.26s-.33.09-.33.26.11.27.33.27S622,172.44,622,172.26Zm3.84-37.92h.53v-.8Zm0,8.22h.53l-.53-.53Zm2.79-6.89c-.27,0-.4.22-.4.66s.13.66.4.66a.66.66,0,1,0,0-1.32Zm1.06,40.57c-.18,0-.27.16-.27.46s.09.47.27.47c.35,0,.53-.16.53-.47S630.05,176.24,629.7,176.24Zm0-1.72h.66V174Zm1.45-11.14a12.54,12.54,0,0,0,.14,1.39c.08.66.13,1,.13,1.13a.76.76,0,0,0,.27.53,1.14,1.14,0,0,0,.39.26v-.53a.87.87,0,0,1,.07-.4.59.59,0,0,0,.07-.26,5.36,5.36,0,0,0-.2-1.39,1.86,1.86,0,0,0-.87-1.13v.4Zm1.33,4.64a.54.54,0,0,0,.13.4,3,3,0,0,0,.27.92,2.73,2.73,0,0,0,.4.8c.26-.09.66-.24,1.19-.46a1.4,1.4,0,0,0,.93-1,2.79,2.79,0,0,0-1.13-.79,4.17,4.17,0,0,0-1.79-.4Zm.13,5.44h.67v-1.2h-.67Zm.67-9.68a.7.7,0,0,0,.26.39,1.72,1.72,0,0,1,.27.4,1.46,1.46,0,0,1,.26-.4c.18-.17.27-.31.27-.39a.57.57,0,0,0-.27-.47c-.18-.13-.26-.24-.26-.33a.43.43,0,0,0-.27.13l-.26.27-.14.13Z"
    transform="translate(-82.87 -75.14)" />
</svg>